<svg width="24" height="24" viewBox="0 0 24 24" fill="none" xmlns="http://www.w3.org/2000/svg">
<path d="M12.7727 10.8753V6.87577C13.6038 7.02008 14.3875 7.37116 15.0575 7.89836C15.1911 7.99265 15.3478 8.04381 15.51 8.04606C16.0299 8.04606 16.4537 7.61542 16.4592 7.08027C16.4603 6.85077 16.3732 6.63034 16.2164 6.46672C15.2484 5.6134 14.0343 5.11007 12.7617 5.03508V3.69431C12.7617 3.31139 12.4604 3.0012 12.0884 3.0012C12.0807 3.00008 12.0729 3.00008 12.0652 3.00008C11.6877 2.99438 11.3765 3.3046 11.371 3.69431V4.98962C8.88753 5.17141 7.19881 6.75078 7.19881 8.85279C7.19881 11.432 9.32904 12.1479 11.371 12.716V17.2609C10.2937 17.112 9.27826 16.6519 8.44602 15.9315C8.2893 15.8031 8.09501 15.7315 7.89413 15.727C7.38531 15.7634 6.99349 16.2019 7.00008 16.7269C6.99899 16.9564 7.08618 17.1768 7.2429 17.3405C8.38308 18.3972 9.84886 19.005 11.382 19.0562V20.306C11.382 20.314 11.383 20.3219 11.383 20.3299C11.4007 20.7185 11.7219 21.0184 12.0994 20.9991C12.4713 20.9991 12.7727 20.6889 12.7727 20.306V19.0334C15.7859 18.8289 17 16.9428 17 14.943C17.0001 12.2615 14.8147 11.4434 12.7727 10.8753ZM11.382 10.5117C10.1789 10.1481 9.24076 9.77315 9.24076 8.71646C9.24076 7.65976 10.0907 6.89848 11.382 6.79624V10.5117ZM12.7727 17.2836V13.1478C14.02 13.5113 14.9912 13.9999 14.9802 15.193C14.9802 16.0565 14.4063 17.0791 12.7727 17.2836Z" fill="#FCFCFD"/>
</svg>
