<svg width="24" height="24" viewBox="0 0 24 24" fill="none" xmlns="http://www.w3.org/2000/svg">
<path d="M14.4946 1.13404C17.2288 0.554805 20.3289 1.89134 21.513 4.39922C22.4347 6.28925 22.0179 8.68772 20.5186 10.183C17.8704 12.8411 15.1958 15.4734 12.5256 18.11C11.4474 19.2277 9.55774 19.4165 8.22374 18.6377C6.12904 17.4321 5.67923 14.3278 7.28664 12.5686C8.43101 11.3265 9.67901 10.1787 10.8565 8.96876C11.2908 8.56329 11.7296 7.96689 12.4198 8.0999C13.2775 8.10634 13.7935 9.30343 13.1187 9.87409C11.809 11.2471 10.389 12.5214 9.07486 13.8923C8.23036 14.7461 8.47731 16.3766 9.60184 16.8829C10.1376 17.0716 10.7087 16.8528 11.0615 16.4431C13.6391 13.8773 16.2079 11.3007 18.7965 8.7435C19.7556 7.84032 19.996 6.33859 19.372 5.19085C18.4856 3.62262 16.3909 2.84172 14.6446 3.38234C13.853 3.59258 13.1783 4.07743 12.616 4.64594C10.4044 6.85776 8.1576 9.03526 5.94162 11.2407C4.83694 12.3326 4.19089 13.8665 4.28791 15.4069C4.29673 18.155 6.72879 20.6372 9.54231 20.8024C11.2115 20.9654 12.9049 20.3282 14.0867 19.1848C15.5199 17.7946 16.9002 16.3508 18.3533 14.98C19.1074 14.3128 20.4634 15.0808 20.1966 16.0591C19.7424 16.8807 18.9156 17.4299 18.2938 18.125C17.1053 19.2491 16.0513 20.5149 14.7416 21.5125C12.3713 23.233 8.98445 23.484 6.36938 22.1453C3.39049 20.6929 1.55377 17.2926 2.09398 14.0811C2.34314 12.161 3.44782 10.4447 4.88986 9.14897C7.00882 7.06586 9.10573 4.9613 11.2159 2.86961C12.1045 1.99646 13.2554 1.38075 14.4946 1.13404Z" fill="#FCFCFD"/>
</svg>
