<svg width="16" height="16" viewBox="0 0 16 16" fill="none" xmlns="http://www.w3.org/2000/svg">
<rect x="1" y="1" width="14" height="14" rx="7" fill="#BF968B"/>
<path d="M8.30569 12.4085C8.22751 12.4867 8.11935 12.535 8.00029 12.535C7.76143 12.535 7.56838 12.342 7.56843 12.1031L7.56829 3.89695C7.56829 3.65815 7.76134 3.46509 8.00014 3.4651C8.23899 3.46504 8.43205 3.6581 8.432 3.89696L8.43214 12.1031C8.43208 12.2229 8.38388 12.3303 8.30569 12.4085Z" fill="#1E2027"/>
<path d="M12.4087 8.30552C12.3305 8.3837 12.2224 8.43196 12.1033 8.43196L3.89713 8.43182C3.65828 8.43187 3.46522 8.23882 3.46527 7.99996C3.46527 7.76116 3.65827 7.56816 3.89712 7.56811L12.1033 7.56825C12.3421 7.5682 12.5352 7.76125 12.5352 8.00011C12.5354 8.11951 12.4869 8.22733 12.4087 8.30552Z" fill="#1E2027"/>
    <rect x="1" y="1" width="14" height="14" rx="7" stroke="#17212B" stroke-width="2"/>
</svg>
