<svg width="24" height="24" viewBox="0 0 24 24" fill="none" xmlns="http://www.w3.org/2000/svg">
<path d="M10.6197 1.2103C13.171 0.385192 16.1455 2.07836 16.7864 4.71013C17.1582 6.41556 16.9164 8.17621 16.9859 9.90619C16.9254 11.9613 17.3396 14.3109 15.943 16.0286C14.4225 18.1481 11.2091 18.6481 9.13542 17.0899C7.81139 16.1574 7.00127 14.5593 7.01336 12.9244C7.01034 10.5595 6.97708 8.18848 7.02847 5.82357C7.08591 3.70711 8.61549 1.76549 10.6197 1.2103ZM10.5773 2.67649C9.56165 3.12125 8.74849 4.04758 8.49154 5.14569C8.23157 6.81432 8.42505 8.51669 8.36761 10.2007C8.4583 11.8141 8.02905 13.6453 9.03265 15.0532C10.0453 16.6206 12.3185 17.1083 13.8723 16.0899C15.0361 15.3998 15.6891 14.0225 15.6195 12.6729C15.5984 10.3111 15.68 7.94309 15.5772 5.58125C15.3686 3.24701 12.6692 1.68574 10.5773 2.67649Z" fill="#FCFCFD"/>
<path d="M4.06138 12.4393C4.25212 11.712 5.50601 11.9584 5.4122 12.6681C5.39657 14.3397 5.8187 16.0847 7.06009 17.3428C9.05505 19.5922 12.8261 20.1142 15.4464 18.5423C17.5915 17.3428 18.6984 14.979 18.589 12.6827C18.4764 11.9583 19.7616 11.7032 19.9398 12.451C20.4933 16.4073 17.1569 20.3136 12.9449 20.7506C12.9418 20.9794 12.9355 21.4369 12.9324 21.6656C13.7579 21.7067 14.6209 21.5512 15.4214 21.7829C15.9936 22.0351 15.7591 22.9443 15.1463 22.9648C13.0575 23.0117 10.9625 23.0117 8.87682 22.9648C8.24205 22.9707 7.99503 22.0293 8.58602 21.7829C9.37712 21.5483 10.237 21.7096 11.0563 21.6744C11.0563 21.3665 11.0594 21.0585 11.0625 20.7535C6.84432 20.3166 3.50166 16.4043 4.06138 12.4393Z" fill="#FCFCFD"/>
</svg>
