<svg width="24" height="24" viewBox="0 0 24 24" fill="none" xmlns="http://www.w3.org/2000/svg">
<path fill-rule="evenodd" clip-rule="evenodd" d="M5.76582 4.77215C5.1681 4.77215 4.68354 5.28221 4.68354 5.91139V20.0886C4.68354 20.7178 5.1681 21.2278 5.76582 21.2278H19.2342C19.8319 21.2278 20.3165 20.7178 20.3165 20.0886V5.91139C20.3165 5.28221 19.8319 4.77215 19.2342 4.77215H5.76582ZM3 5.91139C3 4.30347 4.2383 3 5.76582 3H19.2342C20.7617 3 22 4.30347 22 5.91139V20.0886C22 21.6965 20.7617 23 19.2342 23H5.76582C4.2383 23 3 21.6965 3 20.0886V5.91139Z" fill="#FCFCFD"/>
<path fill-rule="evenodd" clip-rule="evenodd" d="M17 1C17.5523 1 18 1.40878 18 1.91304V6.08696C18 6.59122 17.5523 7 17 7C16.4477 7 16 6.59122 16 6.08696V1.91304C16 1.40878 16.4477 1 17 1Z" fill="#FCFCFD"/>
<path fill-rule="evenodd" clip-rule="evenodd" d="M8 1C8.55228 1 9 1.40878 9 1.91304V6.08696C9 6.59122 8.55228 7 8 7C7.44772 7 7 6.59122 7 6.08696V1.91304C7 1.40878 7.44772 1 8 1Z" fill="#FCFCFD"/>
<path fill-rule="evenodd" clip-rule="evenodd" d="M3 10C3 9.44772 3.37687 9 3.84177 9H21.1582C21.6231 9 22 9.44772 22 10C22 10.5523 21.6231 11 21.1582 11H3.84177C3.37687 11 3 10.5523 3 10Z" fill="#FCFCFD"/>
</svg>
