<svg width="24" height="24" viewBox="0 0 24 24" fill="none" xmlns="http://www.w3.org/2000/svg">
<path d="M11.3908 2.01884C13.0354 1.91717 14.7046 2.22802 16.1984 2.92554C18.6418 4.04974 20.5885 6.20147 21.4552 8.74821C22.0444 10.4403 22.1553 12.2925 21.7898 14.045C21.4469 15.6851 20.6823 17.2343 19.5889 18.5039C18.5068 19.7685 17.1051 20.7577 15.5492 21.349C14.0017 21.9411 12.305 22.1324 10.6637 21.9107C8.6086 21.6369 6.64938 20.6986 5.14558 19.2719C4.0643 18.2556 3.21219 16.9955 2.67676 15.6113C2.08674 14.103 1.87923 12.4492 2.06716 10.8408C2.32966 8.53487 3.43386 6.33897 5.12391 4.74934C6.80563 3.14054 9.06695 2.15343 11.3908 2.01884ZM11.4708 3.35097C9.86489 3.44513 8.28859 3.99723 6.9798 4.93268C5.62809 5.89062 4.55931 7.24358 3.94929 8.78446C3.35469 10.2678 3.19011 11.9179 3.46261 13.4913C3.69929 14.8776 4.28472 16.2022 5.14725 17.3126C6.02186 18.4427 7.17981 19.3523 8.48735 19.9294C10.3107 20.7432 12.4183 20.8907 14.34 20.3527C15.8438 19.9356 17.2272 19.0985 18.2976 17.9635C19.4627 16.7389 20.256 15.1655 20.5415 13.4988C20.9127 11.4016 20.4827 9.17114 19.336 7.374C18.5022 6.05063 17.303 4.95935 15.9047 4.25808C14.5425 3.56681 12.9937 3.25805 11.4708 3.35097Z" fill="#7CA9A9"/>
<path d="M11.456 6.95899C11.6172 6.7169 11.9439 6.60814 12.2177 6.70606C12.4652 6.78815 12.6527 7.02691 12.666 7.28816C12.676 7.49484 12.6664 7.70151 12.6706 7.90818C13.2623 8.02069 13.8489 8.28819 14.2377 8.76112C14.5336 9.11697 14.6802 9.58532 14.6656 10.0457C14.654 10.3408 14.4186 10.6058 14.1285 10.6574C13.8335 10.7208 13.5123 10.5533 13.3935 10.277C13.3027 10.0945 13.3656 9.87324 13.2552 9.69699C13.0923 9.41364 12.7652 9.27906 12.4593 9.21489C12.0118 9.12947 11.5264 9.15655 11.1147 9.36448C10.888 9.47656 10.6884 9.69032 10.6759 9.95408C10.668 10.2058 10.6847 10.4874 10.8564 10.6878C11.0672 10.9283 11.3685 11.0595 11.661 11.1716C12.3314 11.4354 13.0589 11.5883 13.6564 12.0104C14.1527 12.3391 14.4911 12.8779 14.6111 13.4567C14.7323 14.02 14.6686 14.6463 14.3294 15.1255C13.9494 15.6738 13.3089 15.9788 12.6693 16.1034C12.6502 16.3922 12.7247 16.7022 12.5989 16.9739C12.4589 17.2685 12.086 17.4193 11.7806 17.3039C11.533 17.2189 11.348 16.9764 11.3389 16.7143C11.3314 16.5105 11.3393 16.3063 11.3364 16.103C10.7509 15.9876 10.1697 15.7263 9.78133 15.2605C9.46757 14.8921 9.31756 14.3992 9.3434 13.9188C9.3684 13.6213 9.61966 13.3638 9.91592 13.3292C10.2018 13.2854 10.5026 13.4538 10.6151 13.72C10.703 13.9009 10.6401 14.1188 10.7434 14.2946C10.8951 14.5784 11.2147 14.7159 11.5139 14.7851C11.961 14.8784 12.446 14.8538 12.8631 14.6575C13.1027 14.5446 13.3202 14.3246 13.331 14.0463C13.336 13.8225 13.3239 13.5809 13.2002 13.3863C13.0743 13.2029 12.8814 13.0783 12.6856 12.98C11.9743 12.6346 11.1701 12.51 10.493 12.09C10.0401 11.8254 9.68216 11.4054 9.50174 10.9124C9.28131 10.3141 9.26381 9.60865 9.57882 9.03988C9.93258 8.39778 10.6384 8.0386 11.3368 7.90527C11.361 7.59067 11.261 7.23566 11.456 6.95899Z" fill="#7CA9A9"/>
</svg>
