<svg width="24" height="24" viewBox="0 0 24 24" fill="none" xmlns="http://www.w3.org/2000/svg">
<path d="M9.63695 2.29412C15.9176 0.692529 22.7105 5.87079 22.4643 12.0303C22.7904 14.1889 20.7478 16.126 21.7192 18.234C21.799 19.4241 23.2361 21.1207 21.8057 21.9879C19.65 21.836 17.5077 20.2977 15.392 21.3865C9.65691 23.5832 2.71096 19.6014 1.71298 13.8851C0.542013 8.80175 4.34099 3.38927 9.63695 2.29412ZM8.39945 4.71863C3.92849 6.58609 2.05229 12.3974 4.82003 16.2652C7.17526 20.0888 12.7906 21.146 16.6694 18.8354C17.8004 19.076 18.9248 19.3545 20.0492 19.652C19.7565 18.5822 19.4637 17.5313 19.1976 16.4678C20.4617 14.1826 20.9807 11.3782 19.8363 8.95366C18.1597 4.81358 12.5843 2.66758 8.39945 4.71863Z" fill="#FAFAFA"/>
</svg>
