<svg width="20" height="20" viewBox="0 0 20 20" fill="none" xmlns="http://www.w3.org/2000/svg">
<path fill-rule="evenodd" clip-rule="evenodd" d="M5.8335 9.99968C5.8335 9.0792 6.57969 8.33301 7.50016 8.33301C8.42064 8.33301 9.16683 9.0792 9.16683 9.99968C9.16683 10.9202 8.42064 11.6663 7.50016 11.6663C6.57969 11.6663 5.8335 10.9202 5.8335 9.99968Z" fill="#BF968B"/>
<path fill-rule="evenodd" clip-rule="evenodd" d="M10.8335 9.99968C10.8335 9.0792 11.5797 8.33301 12.5002 8.33301C13.4206 8.33301 14.1668 9.0792 14.1668 9.99968C14.1668 10.9202 13.4206 11.6663 12.5002 11.6663C11.5797 11.6663 10.8335 10.9202 10.8335 9.99968Z" fill="#BF968B"/>
<path fill-rule="evenodd" clip-rule="evenodd" d="M10.0001 6.45866C8.96121 6.45866 7.89797 6.64617 6.47899 7.0516C6.03646 7.17803 5.57522 6.92179 5.44878 6.47926C5.32234 6.03673 5.57859 5.57549 6.02112 5.44906C7.5188 5.02115 8.74723 4.79199 10.0001 4.79199C11.2529 4.79199 12.4813 5.02115 13.979 5.44906C14.4215 5.57549 14.6778 6.03673 14.5513 6.47926C14.4249 6.92179 13.9636 7.17803 13.5211 7.0516C12.1021 6.64617 11.0389 6.45866 10.0001 6.45866Z" fill="#BF968B"/>
<path fill-rule="evenodd" clip-rule="evenodd" d="M5.03228 13.5206C5.15871 13.0781 5.61995 12.8219 6.06248 12.9483C8.82952 13.7389 11.1709 13.7389 13.9379 12.9483C14.3805 12.8219 14.8417 13.0781 14.9681 13.5206C15.0946 13.9632 14.8383 14.4244 14.3958 14.5508C11.3295 15.4269 8.67091 15.4269 5.60461 14.5508C5.16208 14.4244 4.90584 13.9632 5.03228 13.5206Z" fill="#BF968B"/>
<path fill-rule="evenodd" clip-rule="evenodd" d="M11.7262 3.02387C11.8648 2.67725 12.2171 2.46513 12.5883 2.50473C13.8956 2.64417 15.3443 2.93686 16.7262 3.89959C16.8694 3.99933 16.9777 4.14149 17.0357 4.30603C17.8871 6.71838 18.3554 8.83065 18.537 10.5369C18.7151 12.2105 18.628 13.5904 18.2736 14.4763C18.265 14.4978 18.2555 14.5189 18.2451 14.5396C17.9354 15.1585 17.467 15.8666 16.8807 16.4327C16.3068 16.987 15.5188 17.5 14.5832 17.5C14.2879 17.5 14.056 17.3675 13.9441 17.2962C13.8071 17.2088 13.6799 17.1003 13.569 16.9935C13.3449 16.7777 13.1154 16.4991 12.911 16.2071C12.7055 15.9135 12.5083 15.5821 12.3591 15.2524C12.2185 14.9416 12.0832 14.5521 12.0832 14.1667C12.0832 13.7065 12.4563 13.3334 12.9166 13.3334C13.3768 13.3334 13.7499 13.7065 13.7499 14.1667C13.7499 14.198 13.7708 14.3293 13.8776 14.5654C13.9759 14.7825 14.1172 15.024 14.2763 15.2513C14.4365 15.4801 14.5976 15.6703 14.7251 15.793C14.7341 15.8017 14.7427 15.8098 14.7508 15.8172C15.0328 15.7646 15.364 15.5805 15.723 15.2338C16.1342 14.8368 16.4922 14.3099 16.7379 13.8269C16.9322 13.3124 17.0456 12.2722 16.8797 10.7132C16.7202 9.21485 16.312 7.3211 15.5554 5.12268C14.7573 4.62109 13.9158 4.37903 13.0339 4.2423L12.4403 5.72619C12.2694 6.15351 11.7844 6.36136 11.3571 6.19043C10.9298 6.0195 10.7219 5.53452 10.8928 5.1072L11.7262 3.02387ZM14.8399 15.8907C14.839 15.8901 14.8378 15.8894 14.8365 15.8885C14.8492 15.8952 14.8507 15.8976 14.8399 15.8907Z" fill="#BF968B"/>
<path fill-rule="evenodd" clip-rule="evenodd" d="M7.4089 2.50502C7.78099 2.46411 8.1347 2.67632 8.27372 3.02387L9.10705 5.10721C9.27798 5.53453 9.07013 6.0195 8.64281 6.19043C8.2155 6.36136 7.73052 6.15351 7.55959 5.72619L6.9677 4.24647C6.15709 4.38166 5.41048 4.61945 4.67294 5.10838C3.95155 7.30956 3.56199 9.20676 3.40981 10.709C3.25152 12.2715 3.3592 13.3194 3.54698 13.8406C3.78181 14.3255 4.12299 14.8525 4.51315 15.2482C4.83688 15.5764 5.12778 15.7493 5.36821 15.8089C5.48124 15.689 5.62369 15.5045 5.76608 15.2812C5.91059 15.0545 6.03953 14.8122 6.12954 14.5927C6.22633 14.3567 6.24999 14.2147 6.24999 14.1667C6.24999 13.7065 6.62309 13.3334 7.08332 13.3334C7.54356 13.3334 7.91666 13.7065 7.91666 14.1667C7.91666 14.5354 7.79906 14.9142 7.67158 15.2251C7.53732 15.5525 7.35898 15.883 7.1714 16.1772C6.98518 16.4693 6.77423 16.75 6.56508 16.9689C6.46181 17.077 6.34074 17.1893 6.20729 17.2808C6.09974 17.3545 5.86461 17.5 5.55666 17.5C4.63549 17.5 3.87144 16.9711 3.32641 16.4184C2.76649 15.8505 2.3208 15.1422 2.02682 14.5251C2.01719 14.5049 2.00838 14.4843 2.00041 14.4633C1.6657 13.5847 1.58234 12.2122 1.75163 10.541C1.92412 8.8383 2.36927 6.72866 3.17922 4.31796C3.23408 4.15466 3.3382 4.01238 3.47726 3.9107C4.79888 2.94424 6.12362 2.64636 7.4089 2.50502Z" fill="#BF968B"/>
</svg>
