<svg width="24" height="24" viewBox="0 0 24 24" fill="none" xmlns="http://www.w3.org/2000/svg">
<path d="M10.3883 2.13483C12.4786 1.78253 14.682 2.12395 16.5548 3.11996C19.3868 4.49435 21.4032 7.34753 21.8752 10.4443C22.3233 13.1866 21.5511 16.1115 19.7805 18.2601C17.7555 20.8327 14.3819 22.2724 11.1214 21.957C9.0441 21.7918 7.04951 20.9089 5.46167 19.5714C3.48883 17.8317 2.16635 15.3199 2.02714 12.6799C1.82268 9.98978 2.78191 7.2388 4.62207 5.26854C6.11421 3.60708 8.18928 2.498 10.3883 2.13483ZM10.5884 3.86153C8.42854 4.2508 6.4035 5.50123 5.1876 7.34318C3.81509 9.28517 3.39964 11.8426 4.01956 14.1325C4.59596 16.2768 6.07288 18.1666 8.02397 19.23C11.3628 21.1676 15.9588 20.2651 18.3558 17.2576C20.2351 15.0329 20.7789 11.7774 19.7283 9.05901C18.4124 5.45774 14.3688 3.12431 10.5884 3.86153Z" fill="#FCFCFD"/>
<path d="M8.16151 11.249C8.80752 10.8706 9.77328 11.4403 9.658 12.208C9.64712 12.9082 8.75532 13.4345 8.17021 12.9822C7.46329 12.6864 7.51767 11.5882 8.16151 11.249Z" fill="#FCFCFD"/>
<path d="M14.9323 11.2189C15.5892 10.8666 16.3984 11.4864 16.3309 12.2019C16.3527 13.0174 15.1694 13.4697 14.6322 12.8434C14.121 12.4172 14.3037 11.4342 14.9323 11.2189Z" fill="#FCFCFD"/>
<path d="M8.31155 15.2997C8.42031 14.8038 8.92059 14.669 9.34691 14.582C10.106 15.2127 10.9326 15.9216 11.9853 15.8868C13.0381 15.9695 13.8755 15.254 14.6172 14.6125C15.3155 14.569 16.0137 15.2953 15.5547 15.9608C14.1996 17.7353 11.4677 18.142 9.59705 16.9611C9.01194 16.5936 8.19192 16.1043 8.31155 15.2997Z" fill="#FCFCFD"/>
</svg>
