<svg width="24" height="24" viewBox="0 0 24 24" fill="none" xmlns="http://www.w3.org/2000/svg">
<path d="M10.4684 2.11839C12.6128 1.781 14.865 2.17056 16.7712 3.2123C19.1956 4.52011 21.034 6.87315 21.6949 9.54965C22.2045 11.5444 22.0723 13.6957 21.3244 15.614C20.3348 18.2 18.2113 20.327 15.6251 21.32C13.6563 22.0922 11.4371 22.2105 9.397 21.6557C6.56907 20.9131 4.13419 18.8487 2.92023 16.1931C1.8454 13.887 1.70453 11.167 2.5376 8.76357C3.68373 5.30794 6.86126 2.64013 10.4684 2.11839ZM10.164 3.94447C8.08913 4.41055 6.22296 5.71489 5.06988 7.50097C3.94288 9.22792 3.49765 11.3827 3.86114 13.414C4.22116 15.5705 5.4925 17.5461 7.29083 18.7896C9.04916 20.0157 11.2945 20.5165 13.4059 20.1409C15.5694 19.7809 17.5521 18.5044 18.7956 16.7009C20.02 14.9409 20.5157 12.694 20.1383 10.5827C19.747 8.25401 18.293 6.13576 16.2651 4.92533C14.4581 3.82795 12.2232 3.46969 10.164 3.94447Z" fill="#FCFCFD"/>
</svg>
