<svg width="24" height="24" viewBox="0 0 24 24" fill="none" xmlns="http://www.w3.org/2000/svg">
<path d="M10.4684 2.11839C12.6128 1.781 14.865 2.17056 16.7712 3.2123C19.1956 4.52011 21.034 6.87315 21.6949 9.54965C22.2045 11.5444 22.0723 13.6957 21.3244 15.614C20.3348 18.2 18.2113 20.327 15.6251 21.32C13.6563 22.0922 11.4371 22.2105 9.397 21.6557C6.56907 20.9131 4.13419 18.8487 2.92023 16.1931C1.8454 13.887 1.70453 11.167 2.5376 8.76357C3.68373 5.30794 6.86126 2.64013 10.4684 2.11839ZM10.164 3.94447C8.08913 4.41055 6.22296 5.71489 5.06988 7.50097C3.94288 9.22792 3.49765 11.3827 3.86114 13.414C4.22116 15.5705 5.4925 17.5461 7.29083 18.7896C9.04916 20.0157 11.2945 20.5165 13.4059 20.1409C15.5694 19.7809 17.5521 18.5044 18.7956 16.7009C20.02 14.9409 20.5157 12.694 20.1383 10.5827C19.747 8.25401 18.293 6.13576 16.2651 4.92533C14.4581 3.82795 12.2232 3.46969 10.164 3.94447Z" fill="#7CA9A9"/>
<path d="M10.0229 9.05611C11.9299 8.40519 13.8239 7.71421 15.7328 7.06329C16.1153 6.93477 16.5865 6.99152 16.81 7.33034C17.1574 7.6341 16.9468 8.08974 16.8174 8.43857C16.1855 9.94403 15.511 11.4361 14.8846 12.9449C14.7146 13.3005 14.576 13.7511 14.1418 13.9113C12.2865 14.5789 10.4147 15.2098 8.56313 15.8808C8.20649 16.0443 7.8129 16.0076 7.43594 15.9575C7.21235 15.6555 6.85017 15.315 7.06637 14.9278C7.7667 13.2137 8.53726 11.5229 9.25422 9.81385C9.37618 9.47337 9.62933 9.16627 10.0229 9.05611ZM10.9247 10.5299C11.649 11.1775 12.3734 11.8267 13.0866 12.4843C13.5671 11.4228 14.0013 10.3429 14.4836 9.28143C13.3028 9.71204 12.111 10.1143 10.9247 10.5299Z" fill="#7CA9A9"/>
</svg>
