<svg width="24" height="24" viewBox="0 0 24 24" fill="none" xmlns="http://www.w3.org/2000/svg">
<path d="M10.6188 1.14066C11.3991 0.980044 12.2094 0.965099 13.0009 1.05474C13.9493 1.21536 13.953 2.44798 14.7745 2.77668C15.4764 3.0867 16.1746 3.4266 16.9176 3.63577C17.5151 3.5648 18.0938 3.33323 18.7061 3.36311C19.4865 3.81881 20.1138 4.53222 20.6104 5.27926C20.6925 5.9516 20.3453 6.60526 20.4199 7.2776C20.8755 8.51395 21.2302 10.023 22.7237 10.3255C22.944 11.3266 23.1643 12.4135 22.8245 13.4145C22.4026 13.8142 21.8686 14.0607 21.3683 14.3483C21.0323 15.2149 20.6813 16.0777 20.3117 16.9331C20.4349 17.5195 20.7261 18.1097 20.6029 18.726C20.2034 19.3199 19.6844 19.8242 19.1542 20.3023C18.5829 21.053 17.6868 20.3396 16.9438 20.3508C16.0663 20.6198 15.2374 21.0269 14.3899 21.3705C14.0949 21.8636 13.8634 22.4164 13.4154 22.7974C12.4931 23.0327 11.4813 23.0887 10.559 22.8273C10.1259 22.4276 9.90561 21.8636 9.61064 21.3668C8.75934 21.0232 7.9155 20.6721 7.08287 20.2873C6.50413 20.4255 5.9366 20.6646 5.33546 20.6608C4.54016 20.1379 3.85688 19.4432 3.33042 18.655C3.37149 18.0387 3.53951 17.4411 3.67019 16.8435C3.28561 16.0329 3.03545 15.1552 2.56499 14.3894C2.10947 14.0495 1.59794 13.7918 1.15362 13.4332C1.01921 12.4957 0.866122 11.4834 1.2059 10.5795C1.63901 10.1425 2.24762 9.9184 2.66207 9.46644C3.05785 8.68204 3.34535 7.84535 3.70006 7.04228C3.56938 6.46706 3.37896 5.90304 3.33789 5.31288C3.89795 4.58825 4.52896 3.89351 5.29812 3.38552C5.89926 3.26226 6.48173 3.56107 7.06047 3.68059C7.85576 3.33695 8.67719 3.05308 9.45009 2.66462C9.92054 2.23133 10.1744 1.60382 10.6188 1.14066ZM10.223 4.60693C6.61988 5.39132 4.00997 9.07424 4.43188 12.7347C4.73805 16.9256 8.9759 20.2574 13.1204 19.5141C17.2985 19.0061 20.4237 14.5799 19.4342 10.4712C18.736 6.37369 14.2331 3.51998 10.223 4.60693Z" fill="#7CA9A9"/>
</svg>
