<svg width="24" height="24" viewBox="0 0 24 24" fill="none" xmlns="http://www.w3.org/2000/svg">
<path fill-rule="evenodd" clip-rule="evenodd" d="M12.6923 6.91706C12.3054 7.28838 11.6945 7.28838 11.3075 6.91706L10.6151 6.2526C9.80471 5.47487 8.70988 5 7.49994 5C5.01466 5 2.99994 7.01472 2.99994 9.5C2.99994 11.8826 4.28972 13.8501 6.1517 15.4666C8.01526 17.0844 10.2433 18.1574 11.5746 18.7051C11.8529 18.8196 12.1469 18.8196 12.4253 18.7051C13.7565 18.1574 15.9846 17.0844 17.8482 15.4666C19.7102 13.85 20.9999 11.8826 20.9999 9.5C20.9999 7.01472 18.9852 5 16.4999 5C15.29 5 14.1952 5.47487 13.3847 6.2526L12.6923 6.91706ZM11.9999 4.80957C10.832 3.6888 9.24643 3 7.49994 3C3.91009 3 0.999939 5.91015 0.999939 9.5C0.999939 15.8683 7.97028 19.385 10.8137 20.5547C11.5795 20.8697 12.4204 20.8697 13.1861 20.5547C16.0296 19.385 22.9999 15.8682 22.9999 9.5C22.9999 5.91015 20.0898 3 16.4999 3C14.7534 3 13.1678 3.6888 11.9999 4.80957Z" fill="#F18D6C"/>
</svg>
