<svg width="24" height="24" viewBox="0 0 24 24" fill="none" xmlns="http://www.w3.org/2000/svg">
<path d="M4.96782 2.55902C7.33893 1.37542 10.1574 2.17553 12.0109 3.98068C14.0752 1.86475 17.5072 1.3027 19.9423 3.06818C23.3104 5.27668 24.0134 10.5533 21.4633 13.7007C19.1114 16.5705 16.1715 18.8782 13.4616 21.3776C11.9853 22.9249 10.2597 21.2321 9.13484 20.1411C6.77012 17.7607 3.91967 15.8299 2.06624 12.9668C-0.164265 9.50196 1.24818 4.21209 4.96782 2.55902ZM3.92606 12.2857C6.25883 15.2282 9.28183 17.5094 12.0172 20.0485C14.0241 18.3293 15.9286 16.4977 17.8907 14.7256C19.4246 13.304 21.0607 11.5782 21.099 9.30356C21.3227 6.36771 18.6832 3.41862 15.7561 4.04679C13.941 4.29144 13.1037 6.10321 11.9917 7.35955C10.8413 5.85856 9.67809 3.8815 7.55623 3.98068C3.63846 3.84843 1.5166 9.28373 3.92606 12.2857Z" fill="#7CA9A9"/>
</svg>
