<svg width="24" height="24" viewBox="0 0 24 24" fill="none" xmlns="http://www.w3.org/2000/svg">
<path d="M11.6955 1.06026C12.2258 0.826289 12.6969 1.32622 13.0689 1.66018C16.0255 4.62977 18.9935 7.58936 21.954 10.555C22.3564 10.9029 22.5186 11.4368 22.4938 11.9708C22.4976 15.1123 22.4823 18.2559 22.4995 21.3995C22.5052 21.9514 22.4709 22.7193 21.8567 22.9013C20.9983 23.0713 20.1171 22.9653 19.2492 22.9873C17.7861 22.9573 16.3231 23.0373 14.8619 22.9653C14.3469 22.9753 13.9235 22.5233 13.933 21.9854C13.8357 20.1896 13.9769 18.3859 13.8872 16.5901C13.8662 15.9282 13.5935 15.2543 13.0517 14.8844C12.2105 14.2565 10.9077 14.5704 10.3927 15.5003C10.1676 15.8762 10.1295 16.3322 10.1028 16.7641C10.0417 18.5039 10.1562 20.2476 10.0703 21.9854C10.0761 22.5153 9.65259 22.9773 9.13948 22.9593C7.2339 23.0373 5.3226 22.9493 3.41321 22.9973C2.8753 22.9613 2.23629 23.0912 1.79375 22.6893C1.45231 22.2814 1.52861 21.6934 1.5 21.1935C1.5248 18.0539 1.49618 14.9124 1.51144 11.7728C1.45422 11.1249 1.933 10.6629 2.33357 10.253C4.89914 7.74534 7.4132 5.1777 9.96161 2.65004C10.5262 2.10811 11.0126 1.4482 11.6955 1.06026ZM10.6273 4.74575C8.31926 7.05544 6.00739 9.36112 3.70315 11.6728C3.29304 12.0528 3.44564 12.6767 3.40558 13.1826C3.45517 15.7722 3.36361 18.3659 3.44754 20.9535C5.01359 21.0135 6.58917 21.0135 8.15522 20.9555C8.26585 19.3618 8.10753 17.76 8.21816 16.1642C8.32689 14.1065 10.2382 12.3747 12.1991 12.5547C14.0379 12.5687 15.6841 14.2605 15.7813 16.1782C15.8958 17.768 15.7356 19.3658 15.8462 20.9555C17.4122 21.0135 18.9878 21.0135 20.5539 20.9555C20.6321 19.9677 20.571 18.9758 20.5844 17.9859C20.5386 16.0062 20.674 14.0145 20.5291 12.0408C20.1132 11.3648 19.4876 10.8709 18.9459 10.311C17.3111 8.69322 15.6936 7.05344 14.0589 5.43366C13.3741 4.76975 12.7675 4.00186 11.9893 3.45193C11.4685 3.80188 11.0699 4.30381 10.6273 4.74575Z" fill="#7CA9A9"/>
</svg>
