<svg width="24" height="24" viewBox="0 0 24 24" fill="none" xmlns="http://www.w3.org/2000/svg">
<path fill-rule="evenodd" clip-rule="evenodd" d="M14.25 8C14.25 7.58579 14.5858 7.25 15 7.25H15.01C15.4242 7.25 15.76 7.58579 15.76 8C15.76 8.41421 15.4242 8.75 15.01 8.75H15C14.5858 8.75 14.25 8.41421 14.25 8Z" fill="#FCFCFD"/>
<path fill-rule="evenodd" clip-rule="evenodd" d="M6.99997 4.75C5.75733 4.75 4.74997 5.75736 4.74997 7V17C4.74997 18.2426 5.75733 19.25 6.99997 19.25H17C18.2426 19.25 19.25 18.2426 19.25 17V7C19.25 5.75736 18.2426 4.75 17 4.75H6.99997ZM3.24997 7C3.24997 4.92893 4.9289 3.25 6.99997 3.25H17C19.071 3.25 20.75 4.92893 20.75 7V17C20.75 19.0711 19.071 20.75 17 20.75H6.99997C4.9289 20.75 3.24997 19.0711 3.24997 17V7Z" fill="#FCFCFD"/>
<path fill-rule="evenodd" clip-rule="evenodd" d="M8.52485 11.5357L4.5303 15.5303C4.23741 15.8232 3.76253 15.8232 3.46964 15.5303C3.17675 15.2374 3.17675 14.7625 3.46964 14.4696L7.46964 10.4696L7.47994 10.4595C8.04573 9.91508 8.74146 9.58008 9.49997 9.58008C10.2585 9.58008 10.9542 9.91508 11.52 10.4595L11.5303 10.4696L16.5303 15.4696C16.8232 15.7625 16.8232 16.2374 16.5303 16.5303C16.2374 16.8232 15.7625 16.8232 15.4696 16.5303L10.4751 11.5357C10.1305 11.206 9.79331 11.0801 9.49997 11.0801C9.20663 11.0801 8.86949 11.206 8.52485 11.5357Z" fill="#FCFCFD"/>
<path fill-rule="evenodd" clip-rule="evenodd" d="M15.5249 13.5357L14.5304 14.5303C14.2375 14.8232 13.7626 14.8232 13.4697 14.5303C13.1768 14.2374 13.1768 13.7625 13.4697 13.4696L14.4697 12.4696L14.48 12.4595C15.0458 11.9151 15.7415 11.5801 16.5 11.5801C17.2585 11.5801 17.9543 11.9151 18.5201 12.4595L18.5304 12.4696L20.5304 14.4696C20.8233 14.7625 20.8233 15.2374 20.5304 15.5303C20.2375 15.8232 19.7626 15.8232 19.4697 15.5303L17.4751 13.5357C17.1305 13.206 16.7934 13.0801 16.5 13.0801C16.2067 13.0801 15.8695 13.206 15.5249 13.5357Z" fill="#FCFCFD"/>
</svg>
