<svg width="20" height="20" viewBox="0 0 20 20" fill="none" xmlns="http://www.w3.org/2000/svg">
<path fill-rule="evenodd" clip-rule="evenodd" d="M13.3332 3.33366H6.6665C4.82555 3.33366 3.33317 4.82604 3.33317 6.66699V13.3337C3.33317 15.1746 4.82555 16.667 6.6665 16.667H13.3332C15.1741 16.667 16.6665 15.1746 16.6665 13.3337V6.66699C16.6665 4.82604 15.1741 3.33366 13.3332 3.33366ZM6.6665 1.66699C3.90508 1.66699 1.6665 3.90557 1.6665 6.66699V13.3337C1.6665 16.0951 3.90508 18.3337 6.6665 18.3337H13.3332C16.0946 18.3337 18.3332 16.0951 18.3332 13.3337V6.66699C18.3332 3.90557 16.0946 1.66699 13.3332 1.66699H6.6665Z" fill="#BF968B"/>
<path d="M14.1668 6.66667C14.6271 6.66667 15.0002 6.29357 15.0002 5.83333C15.0002 5.3731 14.6271 5 14.1668 5C13.7066 5 13.3335 5.3731 13.3335 5.83333C13.3335 6.29357 13.7066 6.66667 14.1668 6.66667Z" fill="#BF968B"/>
<path fill-rule="evenodd" clip-rule="evenodd" d="M14.1668 9.99967C14.1668 12.3008 12.3013 14.1663 10.0002 14.1663C7.69898 14.1663 5.8335 12.3008 5.8335 9.99967C5.8335 7.69849 7.69898 5.83301 10.0002 5.83301C12.3013 5.83301 14.1668 7.69849 14.1668 9.99967ZM12.5002 9.99967C12.5002 11.3804 11.3809 12.4997 10.0002 12.4997C8.61941 12.4997 7.50016 11.3804 7.50016 9.99967C7.50016 8.61892 8.61941 7.49967 10.0002 7.49967C11.3809 7.49967 12.5002 8.61892 12.5002 9.99967Z" fill="#BF968B"/>
</svg>
