<svg width="24" height="24" viewBox="0 0 24 24" fill="none" xmlns="http://www.w3.org/2000/svg">
<path d="M19.528 11.664L12.332 4.468C12.04 4.18 11.64 4 11.2 4H5.60001C4.71599 4 4 4.71599 4 5.60001V11.2C4 11.644 4.18 12.044 4.47201 12.332L11.672 19.532C11.96 19.82 12.36 20 12.8 20C13.24 20 13.644 19.82 13.932 19.532L19.532 13.932C19.82 13.64 20 13.24 20 12.8C20 12.356 19.82 11.956 19.528 11.664ZM6.80001 8.00001C6.136 8.00001 5.60001 7.46402 5.60001 6.80001C5.60001 6.136 6.136 5.60001 6.80001 5.60001C7.46402 5.60001 8.00001 6.136 8.00001 6.80001C8.00001 7.46402 7.46398 8.00001 6.80001 8.00001Z" fill="#FCFCFD"/>
</svg>
