<svg width="24" height="24" viewBox="0 0 24 24" fill="none" xmlns="http://www.w3.org/2000/svg">
<path fill-rule="evenodd" clip-rule="evenodd" d="M4.08904 4.7069C3.29844 4.7069 2.65753 5.36689 2.65753 6.18103V17.819C2.65753 18.6331 3.29844 19.2931 4.08904 19.2931H19.911C20.7016 19.2931 21.3425 18.6331 21.3425 17.819V6.18103C21.3425 5.36689 20.7016 4.7069 19.911 4.7069H4.08904ZM1 6.18103C1 4.4242 2.38301 3 4.08904 3H19.911C21.617 3 23 4.4242 23 6.18103V17.819C23 19.5758 21.617 21 19.911 21H4.08904C2.38301 21 1 19.5758 1 17.819V6.18103Z" fill="#7CA9A9"/>
<path fill-rule="evenodd" clip-rule="evenodd" d="M1.13928 6.34996C1.39317 5.9889 1.90772 5.89134 2.28856 6.13204L12 12.27L21.7114 6.13204C22.0923 5.89134 22.6068 5.9889 22.8607 6.34996C23.1146 6.71101 23.0117 7.19883 22.6309 7.43954L12.4597 13.868C12.1813 14.044 11.8187 14.044 11.5403 13.868L1.36913 7.43954C0.988296 7.19883 0.885385 6.71101 1.13928 6.34996Z" fill="#7CA9A9"/>
</svg>
