<svg width="24" height="24" viewBox="0 0 24 24" fill="none" xmlns="http://www.w3.org/2000/svg">
<path fill-rule="evenodd" clip-rule="evenodd" d="M17.375 8.73452H16.5625V7.09608C16.5625 4.83505 14.7425 3 12.5 3C10.2575 3 8.4375 4.83505 8.4375 7.09608L8.4375 8.73452H7.625C6.73125 8.73452 6 9.47181 6 10.373L6 18.5651C6 19.4663 6.73125 20.2036 7.625 20.2036L17.375 20.2036C18.2688 20.2036 19 19.4663 19 18.5651L19 10.373C19 9.47181 18.2688 8.73452 17.375 8.73452ZM12.5 16.1075C11.6063 16.1075 10.875 15.3702 10.875 14.469C10.875 13.5679 11.6063 12.8306 12.5 12.8306C13.3938 12.8306 14.125 13.5679 14.125 14.469C14.125 15.3702 13.3938 16.1075 12.5 16.1075ZM10.0625 7.09608L10.0625 8.73452L14.9375 8.73452V7.09608C14.9375 5.73618 13.8488 4.63843 12.5 4.63843C11.1513 4.63843 10.0625 5.73618 10.0625 7.09608Z" fill="#11131B"/>
</svg>
