<svg width="116" height="115" viewBox="0 0 116 115" fill="none" xmlns="http://www.w3.org/2000/svg">
<g clip-path="url(#clip0_91_7972)">
<path d="M56.9623 0H58.8243C68.0895 0.125781 77.3276 2.45273 85.4877 6.85732C91.806 10.2646 97.529 14.8265 102.113 20.3631C109.162 28.7545 113.699 39.2146 115.037 50.0924C115.307 52.1273 115.424 54.178 115.5 56.2287V58.3266C115.298 67.6119 112.906 76.8613 108.416 85.0034C104.638 91.8989 99.4314 98.0061 93.2255 102.835C83.428 110.537 71.061 114.82 58.6109 115H57.1779C47.4636 114.872 37.7807 112.309 29.3376 107.494C23.5022 104.163 18.2015 99.8456 13.9092 94.6639C8.67578 88.4242 4.79678 81.0548 2.62705 73.2069C1.29063 68.4407 0.607812 63.5038 0.5 58.5579V56.6869C0.729102 44.576 4.8125 32.5481 12.1774 22.9146C16.9796 16.556 23.1114 11.2058 30.0698 7.32227C38.2523 2.71103 47.5849 0.249316 56.9623 0ZM55.0958 4.52363C46.8481 4.96162 38.715 7.37168 31.5702 11.5135C20.6295 17.7801 12.0629 28.0717 7.92109 39.9827C5.13818 47.8575 4.31162 56.3994 5.43018 64.6718C6.46113 72.3624 9.23955 79.8104 13.4734 86.3129C20.3577 96.9863 31.1839 105.045 43.4071 108.513C53.9233 111.534 65.3829 111.197 75.6925 107.521C84.2231 104.504 91.9385 99.2459 97.8951 92.438C103.739 85.7761 107.906 77.6407 109.802 68.9798C112.279 57.8324 111.064 45.8742 106.269 35.4973C100.662 23.1348 90.1214 13.1104 77.4804 8.15557C70.4029 5.32324 62.7011 4.11709 55.0958 4.52363Z" fill="#FCFCFD"/>
<path d="M78.9635 49.1143H76.2682V41.0283C76.2682 31.707 68.5192 23.958 59.1979 23.958C49.7643 23.958 42.1276 31.707 42.1276 41.0283V49.1143H39.4323C36.4 49.1143 34.0416 51.585 34.0416 54.5049V76.0674C34.0416 79.0996 36.4 81.458 39.4323 81.458H78.9635C81.8834 81.458 84.3541 79.0996 84.3541 76.0674V54.5049C84.3541 51.585 81.8834 49.1143 78.9635 49.1143ZM67.2838 49.1143H51.1119V41.0283C51.1119 36.6484 54.7057 32.9424 59.1979 32.9424C63.5778 32.9424 67.2838 36.6484 67.2838 41.0283V49.1143Z" fill="#FCFCFD"/>
</g>
<defs>
<clipPath id="clip0_91_7972">
<rect width="115" height="115" fill="white" transform="translate(0.5)"/>
</clipPath>
</defs>
</svg>
