<svg width="24" height="24" viewBox="0 0 24 24" fill="none" xmlns="http://www.w3.org/2000/svg">
<path d="M3.00153 2.89268C2.97548 2.46588 3.29654 2.05364 3.72487 2C8.68403 2.01686 13.6447 1.99847 18.6047 2.0092C19.6552 2.01533 20.6383 2.78234 20.9065 3.79762C21.0252 4.20373 20.9961 4.62977 20.9984 5.04737C20.9984 9.18358 20.9984 13.3206 20.9992 17.4568C21.0076 17.987 20.8559 18.5211 20.5448 18.9525C20.1073 19.577 19.3655 19.9739 18.6024 19.9846C17.7672 19.9923 16.9312 19.9846 16.096 19.9885C16.122 20.5693 16.0071 21.1723 15.6646 21.6535C15.106 22.4956 13.9934 22.9155 13.0187 22.642C10.2778 21.8589 7.53543 21.0796 4.79609 20.2927C4.05283 20.0842 3.42987 19.5019 3.16857 18.7763C2.98544 18.3088 3.01916 17.7978 3 17.3058C3.00153 12.5014 2.99847 7.69706 3.00153 2.89268ZM9.61273 3.63441C11.1851 4.05738 12.7475 4.52096 14.3137 4.96768C15.3243 5.24353 16.0829 6.22433 16.0921 7.27256C16.099 10.9659 16.0921 14.6592 16.0952 18.3525C16.9304 18.3487 17.7656 18.3617 18.6008 18.3464C19.0468 18.3326 19.4008 17.902 19.364 17.4637C19.364 13.1436 19.3648 8.82345 19.3632 4.50333C19.3939 4.04129 18.984 3.61679 18.5196 3.64284C15.5504 3.63441 12.5819 3.6505 9.61273 3.63441ZM4.65203 3.90796C4.6528 8.58131 4.64973 13.2539 4.65433 17.9265C4.64131 18.2989 4.91715 18.6437 5.27653 18.7295C7.98138 19.5034 10.6862 20.2773 13.3911 21.0482C13.9167 21.2367 14.5052 20.7716 14.4585 20.2199C14.46 15.9258 14.4616 11.6317 14.4577 7.33769C14.4692 6.96453 14.1964 6.61971 13.8363 6.53236C10.7751 5.65731 7.7155 4.77765 4.65203 3.90796Z" fill="#7CA9A9"/>
</svg>
