<svg width="24" height="24" viewBox="0 0 24 24" fill="none" xmlns="http://www.w3.org/2000/svg">
<path d="M3.49987 6.4686C5.00264 4.217 7.40853 2.4819 10.1271 2.11429C12.2957 1.86064 14.5894 1.98011 16.5704 2.97633C18.866 4.149 20.7293 6.20392 21.5367 8.66321C22.438 11.5416 22.0315 14.8482 20.2529 17.3167C18.9304 19.1014 17.0652 20.5443 14.8911 21.1104C13.0223 21.5828 11.0358 21.5313 9.17249 21.0626C8.30799 21.3273 7.55752 21.9449 6.63416 22C6.03637 21.9393 5.44041 21.535 5.25463 20.9486C5.12036 20.2722 5.16818 19.5775 5.13139 18.8937C3.22764 17.2082 2.03573 14.7324 2.01182 12.1794C1.91801 10.1851 2.37969 8.13937 3.49987 6.4686ZM8.72552 4.1398C6.36929 5.12315 4.44898 7.20749 3.83647 9.70906C3.37663 11.8375 3.55321 14.2031 4.78927 16.054C5.30061 16.8737 6.06395 17.4895 6.63232 18.2651C6.75004 18.9544 6.76476 19.6528 6.77763 20.3513C7.74514 20.0315 8.66115 19.2356 9.73718 19.5536C11.8929 20.0278 14.2878 19.9561 16.232 18.8184C18.1284 17.7211 19.598 15.8793 20.1462 13.7472C20.56 12.0084 20.4386 10.1244 19.7268 8.47573C18.8255 6.48514 17.1278 4.85848 15.0806 4.08651C13.0315 3.43768 10.7599 3.44135 8.72552 4.1398Z" fill="#7CA9A9"/>
<path d="M9.09095 10.9239C9.41857 10.3287 10.0857 9.84284 10.7749 10.091C11.8342 10.556 12.559 11.6354 13.6488 12.0102C14.6249 11.5052 15.3549 10.5925 16.2919 10.0094C16.6569 9.94522 17.01 10.2159 16.9998 10.6116C16.7706 11.2224 16.353 11.7325 16.0152 12.2843C15.5263 13.0045 15.1393 13.7957 14.6046 14.4829C14.2005 15.0087 13.3976 15.1406 12.8629 14.7467C12.0599 14.1532 11.2842 13.5198 10.4727 12.9368C9.43385 13.4365 8.67165 14.3597 7.71764 15C7.58862 14.9931 7.3289 14.9774 7.19819 14.9688C7.10992 14.6929 6.86717 14.3823 7.09464 14.1063C7.75158 13.0409 8.45097 12.0015 9.09095 10.9239Z" fill="#7CA9A9"/>
</svg>
