<svg width="16" height="17" viewBox="0 0 16 17" fill="none" xmlns="http://www.w3.org/2000/svg">
<g clip-path="url(#clip0_2026_47226)">
<path d="M15.2089 1.16666L8.9585 5.79151L10.1208 3.06594L15.2089 1.16666Z" fill="#FCFCFD" stroke="#E17726" stroke-width="0.25" stroke-linecap="round" stroke-linejoin="round"/>
<path d="M0.791504 1.16666L6.98626 5.83468L5.87962 3.06593L0.791504 1.16666Z" fill="#E27625" stroke="#E27625" stroke-width="0.25" stroke-linecap="round" stroke-linejoin="round"/>
<path d="M12.958 11.89L11.2949 14.4306L14.856 15.4111L15.8761 11.9456L12.958 11.89Z" fill="#E27625" stroke="#E27625" stroke-width="0.25" stroke-linecap="round" stroke-linejoin="round"/>
<path d="M0.129883 11.9456L1.14379 15.4111L4.69868 14.4306L3.04178 11.89L0.129883 11.9456Z" fill="#E27625" stroke="#E27625" stroke-width="0.25" stroke-linecap="round" stroke-linejoin="round"/>
<path d="M4.50674 7.59825L3.51758 9.09055L7.04153 9.25088L6.92408 5.4585L4.50674 7.59825Z" fill="#E27625" stroke="#E27625" stroke-width="0.25" stroke-linecap="round" stroke-linejoin="round"/>
<path d="M11.4927 7.59845L9.03839 5.41553L8.95801 9.25108L12.4819 9.09075L11.4927 7.59845Z" fill="#E27625" stroke="#E27625" stroke-width="0.25" stroke-linecap="round" stroke-linejoin="round"/>
<path d="M4.69873 14.4306L6.83163 13.4008L4.9955 11.9702L4.69873 14.4306Z" fill="#E27625" stroke="#E27625" stroke-width="0.25" stroke-linecap="round" stroke-linejoin="round"/>
<path d="M9.16846 13.4008L11.2952 14.4306L11.0046 11.9702L9.16846 13.4008Z" fill="#E27625" stroke="#E27625" stroke-width="0.25" stroke-linecap="round" stroke-linejoin="round"/>
<path d="M11.2952 14.4309L9.16846 13.4011L9.34154 14.7824L9.32298 15.3682L11.2952 14.4309Z" fill="#D5BFB2" stroke="#D5BFB2" stroke-width="0.25" stroke-linecap="round" stroke-linejoin="round"/>
<path d="M4.69873 14.4309L6.67711 15.3682L6.66473 14.7824L6.83163 13.4011L4.69873 14.4309Z" fill="#D5BFB2" stroke="#D5BFB2" stroke-width="0.25" stroke-linecap="round" stroke-linejoin="round"/>
<path d="M6.71398 11.0577L4.9458 10.5397L6.19464 9.96625L6.71398 11.0577Z" fill="#233447" stroke="#233447" stroke-width="0.25" stroke-linecap="round" stroke-linejoin="round"/>
<path d="M9.28613 11.0577L9.80547 9.96625L11.0605 10.5397L9.28613 11.0577Z" fill="#233447" stroke="#233447" stroke-width="0.25" stroke-linecap="round" stroke-linejoin="round"/>
<path d="M4.69837 14.4306L5.00751 11.89L3.0415 11.9456L4.69837 14.4306Z" fill="#CC6228" stroke="#CC6228" stroke-width="0.25" stroke-linecap="round" stroke-linejoin="round"/>
<path d="M10.9922 11.89L11.2951 14.4306L12.9582 11.9456L10.9922 11.89Z" fill="#CC6228" stroke="#CC6228" stroke-width="0.25" stroke-linecap="round" stroke-linejoin="round"/>
<path d="M12.4819 9.09042L8.95801 9.25075L9.28566 11.0576L9.805 9.96606L11.06 10.5396L12.4819 9.09042Z" fill="#CC6228" stroke="#CC6228" stroke-width="0.25" stroke-linecap="round" stroke-linejoin="round"/>
<path d="M4.9457 10.5396L6.19454 9.96606L6.71388 11.0576L7.04153 9.25075L3.51758 9.09042L4.9457 10.5396Z" fill="#CC6228" stroke="#CC6228" stroke-width="0.25" stroke-linecap="round" stroke-linejoin="round"/>
<path d="M3.51807 9.09042L4.99567 11.9702L4.94617 10.5396L3.51807 9.09042Z" fill="#E27525" stroke="#E27525" stroke-width="0.25" stroke-linecap="round" stroke-linejoin="round"/>
<path d="M11.0605 10.5396L11.0049 11.9702L12.4825 9.09042L11.0605 10.5396Z" fill="#E27525" stroke="#E27525" stroke-width="0.25" stroke-linecap="round" stroke-linejoin="round"/>
<path d="M7.04206 9.25076L6.71436 11.0576L7.12857 13.1911L7.22132 10.3792L7.04206 9.25076Z" fill="#E27525" stroke="#E27525" stroke-width="0.25" stroke-linecap="round" stroke-linejoin="round"/>
<path d="M8.95829 9.25076L8.78516 10.3731L8.87172 13.1911L9.28594 11.0576L8.95829 9.25076Z" fill="#E27525" stroke="#E27525" stroke-width="0.25" stroke-linecap="round" stroke-linejoin="round"/>
<path d="M9.2858 11.0577L8.87158 13.1913L9.16835 13.401L11.0045 11.9704L11.0602 10.5397L9.2858 11.0577Z" fill="#F5841F" stroke="#F5841F" stroke-width="0.25" stroke-linecap="round" stroke-linejoin="round"/>
<path d="M4.9458 10.5397L4.99529 11.9704L6.83143 13.401L7.12819 13.1913L6.71398 11.0577L4.9458 10.5397Z" fill="#F5841F" stroke="#F5841F" stroke-width="0.25" stroke-linecap="round" stroke-linejoin="round"/>
<path d="M9.32316 15.368L9.34167 14.7822L9.18096 14.6465H6.8193L6.66473 14.7822L6.67711 15.368L4.69873 14.4307L5.39115 14.998L6.79456 15.9662H9.19948L10.6091 14.998L11.2953 14.4307L9.32316 15.368Z" fill="#C0AC9D" stroke="#C0AC9D" stroke-width="0.25" stroke-linecap="round" stroke-linejoin="round"/>
<path d="M9.16841 13.4009L8.87164 13.1913H7.12821L6.83149 13.4009L6.66455 14.7822L6.81912 14.6466H9.18078L9.34154 14.7822L9.16841 13.4009Z" fill="#161616" stroke="#161616" stroke-width="0.25" stroke-linecap="round" stroke-linejoin="round"/>
<path d="M15.4744 6.09366L16 3.54075L15.2086 1.16666L9.16846 5.63737L11.493 7.59829L14.7758 8.55411L15.4992 7.70931L15.1839 7.48112L15.6847 7.02484L15.3014 6.72883L15.8021 6.3465L15.4744 6.09366Z" fill="#763E1A" stroke="#763E1A" stroke-width="0.25" stroke-linecap="round" stroke-linejoin="round"/>
<path d="M0 3.54075L0.531685 6.09366L0.191656 6.3465L0.698609 6.72883L0.315302 7.02484L0.816073 7.48112L0.500771 7.70931L1.22411 8.55411L4.50698 7.59829L6.83152 5.63737L0.791346 1.16666L0 3.54075Z" fill="#763E1A" stroke="#763E1A" stroke-width="0.25" stroke-linecap="round" stroke-linejoin="round"/>
<path d="M14.7761 8.55417L11.4933 7.59839L12.4825 9.09069L11.0049 11.9704L12.9585 11.9458H15.8766L14.7761 8.55417Z" fill="#F5841F" stroke="#F5841F" stroke-width="0.25" stroke-linecap="round" stroke-linejoin="round"/>
<path d="M4.50699 7.59839L1.22416 8.55417L0.129883 11.9458H3.04178L4.99539 11.9704L3.51783 9.09069L4.50699 7.59839Z" fill="#F5841F" stroke="#F5841F" stroke-width="0.25" stroke-linecap="round" stroke-linejoin="round"/>
<path d="M8.95822 9.25103L9.16842 5.63744L10.1205 3.06604H5.87939L6.83146 5.63744L7.04166 9.25103L7.12204 10.3856L7.12823 13.1914H8.87166L8.87784 10.3856L8.95822 9.25103Z" fill="#F5841F" stroke="#F5841F" stroke-width="0.25" stroke-linecap="round" stroke-linejoin="round"/>
</g>
<defs>
<clipPath id="clip0_2026_47226">
<rect width="16" height="16" fill="white" transform="translate(0 0.5)"/>
</clipPath>
</defs>
</svg>
