<svg width="16" height="16" viewBox="0 0 16 16" fill="none" xmlns="http://www.w3.org/2000/svg">
<path fill-rule="evenodd" clip-rule="evenodd" d="M5.33366 8.00016C5.33366 7.26683 4.73366 6.66683 4.00033 6.66683C3.26699 6.66683 2.66699 7.26683 2.66699 8.00016C2.66699 8.7335 3.26699 9.3335 4.00033 9.3335C4.73366 9.3335 5.33366 8.7335 5.33366 8.00016ZM6.66699 8.00016C6.66699 8.7335 7.26699 9.3335 8.00033 9.3335C8.73366 9.3335 9.33366 8.7335 9.33366 8.00016C9.33366 7.26683 8.73366 6.66683 8.00033 6.66683C7.26699 6.66683 6.66699 7.26683 6.66699 8.00016ZM12.0003 9.3335C11.267 9.3335 10.667 8.7335 10.667 8.00016C10.667 7.26683 11.267 6.66683 12.0003 6.66683C12.7337 6.66683 13.3337 7.26683 13.3337 8.00016C13.3337 8.7335 12.7337 9.3335 12.0003 9.3335Z" fill="#BF968B"/>
</svg>
