<svg width="42" height="42" viewBox="0 0 42 42" fill="none" xmlns="http://www.w3.org/2000/svg">
<path d="M12.497 3.85546C15.458 3.23402 18.5064 3.64184 21.5062 3.52532C24.5595 3.6467 27.7438 3.12235 30.6806 4.2196C33.8455 5.3217 36.4522 7.85604 37.6511 10.9876C38.9763 14.3279 38.2919 17.9886 38.4618 21.4842C38.2773 24.6449 38.986 27.9657 37.7482 30.9807C36.2289 35.0978 32.1951 38.1857 27.8069 38.477C23.5984 38.5012 19.3898 38.4624 15.1813 38.4915C9.33204 38.7343 3.85172 33.7239 3.57504 27.8686C3.42941 23.6447 3.54591 19.4111 3.51679 15.1823C3.46339 9.9243 7.36612 4.99641 12.497 3.85546ZM6.66712 11.075C5.4099 13.5462 5.73027 16.3864 5.69629 19.0567C5.73998 22.1494 5.58949 25.2469 5.80793 28.3299C8.48256 26.0674 10.7009 23.3097 13.3707 21.0376C15.9191 19.6199 16.9579 23.4942 19.0355 23.7904C21.5208 21.6153 23.676 19.081 26.1322 16.8719C27.0205 16.0708 28.4137 16.3524 29.1515 17.2118C31.5592 19.5762 33.9426 21.9649 36.3017 24.3778C36.1949 20.9987 36.3988 17.6147 36.1949 14.2453C35.8502 9.70583 31.8116 5.88488 27.273 5.7538C23.2537 5.66641 19.2345 5.71496 15.2153 5.72467C11.6572 5.71496 8.1622 7.82206 6.66712 11.075ZM20.7878 25.1838C19.8947 26.0626 18.4384 26.281 17.3656 25.6256C16.2492 24.8876 15.4046 23.8341 14.4677 22.9116C11.8416 25.4945 9.26409 28.126 6.638 30.7089C8.09424 33.9957 11.5698 36.2825 15.1861 36.1611C19.2199 36.1708 23.2537 36.2145 27.2924 36.1417C31.9669 36.0931 36.059 31.9178 36.1512 27.2666C33.2241 24.3876 30.3748 21.4308 27.4186 18.5857C25.2051 20.7851 23.0499 23.0378 20.7878 25.1838Z" fill="#FAFAFA"/>
<path d="M11.6994 12.3546C12.97 11.8524 14.3857 13.2533 13.9034 14.5325C13.5857 15.7686 11.8406 16.1689 10.9896 15.2389C10.0915 14.3834 10.4876 12.6803 11.6994 12.3546Z" fill="#FAFAFA"/>
</svg>
