<svg width="24" height="24" viewBox="0 0 24 24" fill="none" xmlns="http://www.w3.org/2000/svg">
<path d="M11.7834 0H12.172C14.1056 0.02625 16.0336 0.511875 17.7366 1.43109C19.0552 2.14219 20.2495 3.09422 21.2062 4.24969C22.6772 6.00094 23.6241 8.18391 23.9034 10.4541C23.9597 10.8787 23.9841 11.3067 24 11.7347V12.1725C23.9578 14.1103 23.4586 16.0406 22.5216 17.7398C21.7331 19.1789 20.6466 20.4534 19.3514 21.4613C17.3067 23.0686 14.7258 23.9625 12.1275 24H11.8284C9.80109 23.9733 7.78031 23.4384 6.01828 22.4334C4.80047 21.7383 3.69422 20.8373 2.79844 19.7559C1.70625 18.4537 0.896719 16.9158 0.443906 15.278C0.165 14.2833 0.0225 13.253 0 12.2208V11.8303C0.0478125 9.30281 0.9 6.79266 2.43703 4.78219C3.43922 3.45516 4.71891 2.33859 6.17109 1.52812C7.87875 0.565781 9.82641 0.0520312 11.7834 0ZM11.3939 0.944062C9.67266 1.03547 7.97531 1.53844 6.48422 2.40281C4.20094 3.71062 2.41313 5.85844 1.54875 8.34422C0.967969 9.98766 0.795469 11.7703 1.02891 13.4967C1.24406 15.1017 1.82391 16.6561 2.7075 18.0131C4.14422 20.2406 6.40359 21.9225 8.95453 22.6462C11.1492 23.2767 13.5408 23.2064 15.6923 22.4391C17.4727 21.8095 19.0828 20.7122 20.3259 19.2914C21.5456 17.9011 22.4152 16.2033 22.8108 14.3958C23.3278 12.0694 23.0742 9.57375 22.0734 7.40812C20.9034 4.82812 18.7036 2.73609 16.0655 1.70203C14.5884 1.11094 12.9811 0.859219 11.3939 0.944062Z" fill="#FCFCFD"/>
<path d="M8.30821 5.92125C8.47883 5.83641 8.67524 5.88703 8.82899 5.98172C11.9884 7.80656 15.1482 9.63094 18.3085 11.4544C18.4674 11.55 18.6676 11.6302 18.729 11.8238C18.8293 12.0539 18.706 12.3281 18.489 12.4392C15.3001 14.2847 12.107 16.1231 8.91758 17.9672C8.78352 18.0422 8.64336 18.142 8.48165 18.1223C8.27774 18.1125 8.09024 17.9606 8.04571 17.7605C8.01149 17.6077 8.02602 17.4497 8.02368 17.295C8.02415 13.6697 8.02368 10.0444 8.02368 6.41953C8.00961 6.21563 8.11836 6.00516 8.30821 5.92125Z" fill="#FCFCFD"/>
</svg>
