<svg width="24" height="25" viewBox="0 0 24 25" fill="none" xmlns="http://www.w3.org/2000/svg">
<path d="M12.7332 23.0805C12.5456 23.2681 12.286 23.3841 12.0003 23.3839C11.427 23.3841 10.9637 22.9207 10.9638 22.3475L10.9635 2.65267C10.9634 2.07955 11.4268 1.61623 11.9999 1.61623C12.5731 1.6161 13.0365 2.07944 13.0364 2.65269L13.0367 22.3475C13.0366 22.6349 12.9209 22.8928 12.7332 23.0805Z" fill="#7CA9A9"/>
<path d="M22.5805 13.2332C22.3928 13.4209 22.1334 13.5367 21.8475 13.5367L2.15268 13.5364C1.57942 13.5365 1.11609 13.0732 1.11622 12.4999C1.11621 11.9268 1.5794 11.4636 2.15266 11.4635L21.8475 11.4638C22.4207 11.4637 22.8841 11.927 22.8839 12.5003C22.8846 12.7868 22.7681 13.0456 22.5805 13.2332Z" fill="#7CA9A9"/>
</svg>
