<svg width="24" height="24" viewBox="0 0 24 24" fill="none" xmlns="http://www.w3.org/2000/svg">
<path d="M8.88414 1.46645C14.1258 -0.207332 20.2357 2.78182 22.1911 7.89993C24.3222 12.8532 22.087 19.1289 17.3117 21.6342C12.7876 24.2506 6.48035 22.9998 3.34467 18.8064C0.0331863 14.785 0.252038 8.39454 3.85772 4.62763C5.19953 3.13306 6.95752 2.02915 8.88414 1.46645ZM6.9647 4.44484C3.90794 6.3946 2.30781 10.3156 3.08635 13.8496C3.37696 15.4445 4.21649 16.8602 5.19236 18.129C5.79151 17.4265 6.36555 16.638 7.22302 16.233C8.67964 15.4086 10.3982 15.681 11.9911 15.638C13.5051 15.6882 15.1232 15.4194 16.526 16.1362C17.4804 16.5269 18.1118 17.3763 18.7971 18.1003C19.9451 16.6559 20.8241 14.9535 21.0107 13.0933C21.4699 9.60238 19.6725 5.92867 16.5978 4.18679C13.6845 2.43416 9.78466 2.53451 6.9647 4.44484ZM9.35055 17.5555C8.163 17.5914 7.25889 18.4695 6.65974 19.4157C9.77749 21.6092 14.2873 21.7023 17.3333 19.3261C16.6193 18.5447 15.8587 17.5519 14.6891 17.5484C12.9132 17.4982 11.1265 17.491 9.35055 17.5555Z" fill="#7CA9A9"/>
<path d="M10.7248 5.10789C13.3223 4.33014 16.2679 6.16162 16.7702 8.80311C17.4303 11.4661 15.3961 14.3549 12.6801 14.6667C10.1149 15.104 7.4851 13.1327 7.15502 10.5629C6.73167 8.17948 8.38921 5.69569 10.7248 5.10789ZM10.6889 7.15084C8.66905 8.00027 8.44661 11.1292 10.3015 12.2761C12.0056 13.5664 14.7467 12.3585 14.944 10.2296C15.3602 7.9716 12.7053 6.0541 10.6889 7.15084Z" fill="#7CA9A9"/>
</svg>
