<svg width="92" height="92" viewBox="0 0 92 92" fill="none" xmlns="http://www.w3.org/2000/svg">
<circle cx="46" cy="46" r="45" stroke="#FCFCFD" stroke-width="2"/>
<path d="M53.4921 69.3253C53.7388 69.4437 53.9779 69.5873 54.2384 69.667C54.4897 69.7367 54.731 69.5948 54.9547 69.4882C57.9926 67.9566 60.8519 65.996 63.4377 63.6717C65.5064 61.8001 67.3873 59.6514 68.8637 57.1895C70.7822 54.023 71.9567 50.2596 71.8939 46.4366C71.8617 43.585 70.9231 40.7704 69.3012 38.5453C71.733 36.2278 73.5066 33.0227 74 29.5087V29.3433C73.9617 29.088 73.8246 28.8563 73.6131 28.7345C70.9431 26.993 67.7137 26.4061 64.6528 26.8696C60.6581 27.4381 56.8908 29.7547 54.3863 33.2167C51.6426 29.4231 47.3828 27.0098 42.9719 26.7453C40.2513 26.5715 37.4548 27.2113 35.1126 28.7673C34.9234 28.884 34.8138 29.1015 34.7725 29.329V29.5011C35.2605 33.0202 37.0395 36.2269 39.4729 38.547C37.6632 41.0089 36.73 44.2072 36.8886 47.3627C37.0143 51.2185 38.3842 54.9324 40.4359 58.0333C42.0365 60.4717 44.0216 62.5844 46.1845 64.4191C48.4493 66.3369 50.9056 67.9826 53.4921 69.3253ZM48.4278 64.3007C46.8556 63.0865 45.3654 61.7422 44.0101 60.245C42.2134 58.2516 40.6428 55.9736 39.6054 53.4C38.637 51.0128 38.1482 48.3737 38.3098 45.7615C38.493 43.035 39.6139 40.4069 41.3898 38.4899C42.9689 36.7677 45.0582 35.6123 47.2655 35.268C49.2966 34.9439 51.4235 35.284 53.2692 36.2748C52.5383 36.9717 51.8671 37.7493 51.3231 38.6301C50.1203 40.5437 49.4621 42.8671 49.4897 45.1922C49.5081 45.5994 49.8735 45.9336 50.2428 45.8883C50.606 45.8631 50.9017 45.4894 50.8841 45.0922C50.891 43.6169 51.1929 42.1425 51.7805 40.8133C52.7988 38.4739 54.6805 36.6082 56.9077 35.7357C59.7808 34.5988 63.0945 35.1664 65.6412 36.9608C67.8692 38.5151 69.5295 41.0181 70.1715 43.8277C70.6067 45.6624 70.563 47.5945 70.2734 49.4518C69.8712 51.9935 68.8959 54.3992 67.5804 56.5278C65.9959 59.0821 63.9671 61.2736 61.7506 63.1663C59.4713 65.0958 56.9996 66.7584 54.3855 68.0851C52.3015 67.0229 50.3103 65.7449 48.4278 64.3007ZM36.2466 29.816C38.5841 28.4213 41.3431 27.9956 43.9649 28.3894C47.821 28.9461 51.4419 31.2939 53.6906 34.7802C51.0649 33.4762 48.0064 33.2419 45.2543 34.2008C43.696 32.6743 41.9315 31.3442 39.9418 30.5978C39.5939 30.4349 39.1618 30.6364 39.0201 31.0168C38.8615 31.3955 39.0515 31.8833 39.4085 32.0235C41.0259 32.6113 42.4785 33.6458 43.7818 34.8339C42.5329 35.4696 41.3822 36.3386 40.403 37.4C38.3474 35.4309 36.7928 32.7666 36.2466 29.816ZM64.9785 34.8306C66.2702 33.6559 67.7075 32.6365 69.305 32.0428C69.6842 31.9203 69.9018 31.4206 69.7425 31.021C69.6084 30.6179 69.151 30.434 68.7986 30.602C66.8196 31.3476 65.0689 32.6793 63.5151 34.1933C60.763 33.2528 57.703 33.4636 55.0804 34.7777C57.041 31.7372 60.0497 29.5574 63.3473 28.6909C66.3905 27.8739 69.7386 28.1593 72.5137 29.816C71.9651 32.7666 70.4121 35.4225 68.3649 37.4008C67.3773 36.3437 66.2281 35.4729 64.9785 34.8306Z" fill="#FCFCFD"/>
<path d="M51.3131 41.7797C51.672 41.8558 50.8789 42.2989 50.7995 42.6584L50.9424 43.0358C50.2027 43.6755 50.927 43.697 50.5992 44.8831C42.8907 50.8951 35.1812 56.9056 27.4738 62.9191C27.2614 63.0748 27.0538 63.3081 26.7638 63.2741C26.4931 63.2525 26.2592 63.0171 26.1889 62.7391C25.2959 59.8532 24.3981 56.9681 23.5065 54.0813C19.9881 54.9473 16.4791 55.8451 12.9638 56.7229C12.6999 56.7819 12.4087 56.9165 12.141 56.7446C11.8231 56.5643 11.7089 56.0952 11.8983 55.7978C14.1999 51.1957 16.514 46.6001 18.8071 41.9938C18.8012 41.9623 18.7874 41.9 18.7808 41.8681C17.251 38.3085 15.7236 34.7475 14.1931 31.1875C14.119 31.0341 14.1093 30.8627 14.1278 30.6999L14.2266 30.4934C14.3803 30.3161 14.6207 30.215 14.8548 30.2984C27.397 34.2065 38.7702 37.8748 51.3131 41.7797ZM47.3725 41.7567C36.85 38.4793 26.3285 35.1979 15.806 31.9187C17.1593 35.0773 18.5221 38.2309 19.8751 41.3902C29.2077 41.5816 38.5383 41.7385 47.8716 41.9339C47.7079 41.862 47.5408 41.8044 47.3725 41.7567ZM23.0443 48.5832C24.3898 52.9133 25.7302 57.2448 27.0817 61.5732C34.6867 55.637 42.2965 49.7073 49.9028 43.7737C40.9483 45.3666 31.9982 46.9828 23.0443 48.5832ZM19.8878 42.6847C18.0312 46.3582 16.1934 50.0438 14.3511 53.7258C16.8713 51.6788 19.3609 49.59 21.8737 47.5332C22.031 47.4049 22.2417 47.4022 22.4316 47.3628C29.1441 46.1607 35.8563 44.9557 42.5691 43.753C43.5988 43.5561 44.6409 43.4062 45.6627 43.1802C37.071 43.0054 28.4798 42.866 19.8878 42.6847ZM15.0647 54.841C17.7482 54.1677 20.4341 53.5023 23.1114 52.8092C22.726 51.5879 22.35 50.3633 21.9643 49.1427C19.6642 51.0414 17.3617 52.9377 15.0647 54.841Z" fill="#FCFCFD"/>
</svg>
