<svg width="24" height="24" viewBox="0 0 24 24" fill="none" xmlns="http://www.w3.org/2000/svg">
<path fill-rule="evenodd" clip-rule="evenodd" d="M22.7144 1.28557C23.0952 1.66633 23.0952 2.28367 22.7144 2.66443L11.6644 13.7144C11.2837 14.0952 10.6663 14.0952 10.2856 13.7144C9.90481 13.3337 9.90481 12.7163 10.2856 12.3356L21.3356 1.28557C21.7163 0.90481 22.3337 0.90481 22.7144 1.28557Z" fill="#FCFCFD"/>
<path fill-rule="evenodd" clip-rule="evenodd" d="M22.7053 1.29466C22.9811 1.57045 23.0726 1.98079 22.9402 2.34763L16.2034 21.0032C16.194 21.0294 16.1834 21.0552 16.1718 21.0806C16.0461 21.3549 15.8442 21.5874 15.5903 21.7504C15.3363 21.9134 15.0409 22 14.7391 22C14.4373 22 14.1419 21.9134 13.8879 21.7504C13.64 21.5912 13.4417 21.3658 13.3154 21.0999L9.84364 14.1564L2.9001 10.6846C2.63417 10.5583 2.40877 10.3601 2.24963 10.1121C2.08664 9.8581 2 9.56267 2 9.2609C2 8.95913 2.08664 8.6637 2.24963 8.40973C2.41261 8.15576 2.64508 7.95392 2.91942 7.8282C2.94478 7.81658 2.9706 7.80602 2.99683 7.79655L21.6524 1.05983C22.0192 0.92736 22.4296 1.01888 22.7053 1.29466ZM4.683 9.32669L11.0433 12.5068C11.238 12.6042 11.3958 12.762 11.4932 12.9567L14.6733 19.317L20.32 3.67999L4.683 9.32669Z" fill="#FCFCFD"/>
</svg>
