<svg width="24" height="24" viewBox="0 0 24 24" fill="none" xmlns="http://www.w3.org/2000/svg">
<path d="M20.2843 5.27186H9.57519C9.28076 4.39741 8.45365 3.76562 7.48119 3.76562C6.50872 3.76562 5.68161 4.39741 5.38719 5.27186H3.71558C3.32726 5.27186 3.01245 5.58667 3.01245 5.97498C3.01245 6.3633 3.32726 6.67811 3.71558 6.67811H5.38723C5.68165 7.55256 6.50876 8.18434 7.48123 8.18434C8.4537 8.18434 9.28081 7.55256 9.57523 6.67811H20.2843C20.6727 6.67811 20.9875 6.3633 20.9875 5.97498C20.9875 5.58667 20.6727 5.27186 20.2843 5.27186ZM7.48119 6.77809C7.03836 6.77809 6.67808 6.41781 6.67808 5.97498C6.67808 5.53216 7.03836 5.17188 7.48119 5.17188C7.92401 5.17188 8.2843 5.53216 8.2843 5.97498C8.2843 6.41781 7.92401 6.77809 7.48119 6.77809Z" fill="#7CA9A9"/>
<path d="M20.2843 11.2972H18.6126C18.3182 10.4228 17.4911 9.79102 16.5186 9.79102C15.5462 9.79102 14.7191 10.4228 14.4247 11.2972H3.71558C3.32726 11.2972 3.01245 11.6121 3.01245 12.0004C3.01245 12.3887 3.32726 12.7035 3.71558 12.7035H14.4247C14.7191 13.578 15.5463 14.2097 16.5187 14.2097C17.4911 14.2097 18.3183 13.578 18.6127 12.7035H20.2843C20.6727 12.7035 20.9875 12.3887 20.9875 12.0004C20.9875 11.6121 20.6727 11.2972 20.2843 11.2972ZM16.5187 12.8035C16.0759 12.8035 15.7156 12.4432 15.7156 12.0004C15.7156 11.5575 16.0759 11.1973 16.5187 11.1973C16.9615 11.1973 17.3218 11.5575 17.3218 12.0004C17.3218 12.4432 16.9615 12.8035 16.5187 12.8035Z" fill="#7CA9A9"/>
<path d="M20.2843 17.3226H12.5877C12.2933 16.4482 11.4662 15.8164 10.4937 15.8164C9.52123 15.8164 8.69412 16.4482 8.3997 17.3226H3.71558C3.32726 17.3226 3.01245 17.6375 3.01245 18.0258C3.01245 18.4141 3.32726 18.7289 3.71558 18.7289H8.3997C8.69412 19.6033 9.52123 20.2351 10.4937 20.2351C11.4662 20.2351 12.2933 19.6033 12.5877 18.7289H20.2843C20.6727 18.7289 20.9875 18.4141 20.9875 18.0258C20.9875 17.6375 20.6727 17.3226 20.2843 17.3226ZM10.4937 18.8289C10.0509 18.8289 9.69059 18.4686 9.69059 18.0258C9.69059 17.583 10.0509 17.2227 10.4937 17.2227C10.9365 17.2227 11.2968 17.5829 11.2968 18.0258C11.2968 18.4686 10.9365 18.8289 10.4937 18.8289Z" fill="#7CA9A9"/>
</svg>
