<svg width="24" height="24" viewBox="0 0 24 24" fill="none" xmlns="http://www.w3.org/2000/svg">
<path d="M4.65094 6.80114C6.11906 4.85061 8.309 3.39462 10.7467 3.09052C13.5667 2.67277 16.5825 3.72023 18.5063 5.83356C18.9865 6.75814 17.6163 7.46462 17.0657 6.65369C15.1786 4.87211 12.3525 4.16255 9.875 4.96426C8.11325 5.44037 6.70936 6.73356 5.68168 8.20183C6.56561 8.20798 7.45566 8.13425 8.33347 8.27247C8.74638 8.61958 8.72497 9.16327 8.6118 9.6486C6.899 10.051 5.1189 9.78376 3.37856 9.82369C2.84331 8.88989 3.04518 7.79637 3.00847 6.77349C3.02988 5.82434 2.83413 4.74617 3.57125 3.99975C3.9444 4.16255 4.43378 4.22091 4.62953 4.64174C4.69987 5.35744 4.65705 6.07929 4.65094 6.80114Z" fill="#7CA9A9"/>
<path d="M15.276 14.4189C16.689 13.9274 18.2122 14.2223 19.6742 14.1486C20.1697 14.0687 20.5795 14.3452 20.968 14.6063C20.9466 16.1759 21.0812 17.7609 20.916 19.3244C20.7998 20.0862 19.5855 20.0616 19.4142 19.3551C19.2827 18.6425 19.35 17.9145 19.3439 17.1988C18.2214 18.6978 16.7074 19.9357 14.912 20.5101C11.7586 21.6405 7.97817 20.7712 5.65059 18.3507C4.84924 17.6442 6.13384 16.4739 6.78532 17.2387C8.71529 19.0756 11.6271 19.8804 14.181 19.0203C15.9274 18.5442 17.2885 17.2418 18.3254 15.8073C17.4567 15.7735 16.5636 15.9025 15.7103 15.7121C15.1903 15.4664 15.3035 14.8889 15.276 14.4189Z" fill="#7CA9A9"/>
</svg>
