<svg width="24" height="24" viewBox="0 0 24 24" fill="none" xmlns="http://www.w3.org/2000/svg">
<path d="M11.9054 0H12.0793C12.4454 0.0407813 12.7543 0.373125 12.7486 0.744844C12.7505 1.40344 12.7515 2.0625 12.7486 2.72156C12.751 3.09844 12.4252 3.43828 12.0493 3.45469C11.6405 3.49219 11.2468 3.13453 11.2515 2.72297C11.2486 2.06391 11.2496 1.40484 11.251 0.74625C11.2425 0.376875 11.5449 0.0515625 11.9054 0Z" fill="#7CA9A9"/>
<path d="M3.9098 3.30708C4.15355 3.26208 4.41465 3.34365 4.58574 3.52365C5.04652 3.98443 5.50824 4.44427 5.96761 4.90646C6.25964 5.19146 6.24371 5.71553 5.93433 5.98178C5.65777 6.24521 5.17918 6.24193 4.91011 5.96818C4.43949 5.49943 3.96887 5.02974 3.50059 4.55818C3.25871 4.31302 3.22965 3.89537 3.42934 3.61646C3.5409 3.45568 3.71668 3.3399 3.9098 3.30708Z" fill="#7CA9A9"/>
<path d="M19.8023 3.31057C20.1482 3.23276 20.5275 3.43526 20.6526 3.76714C20.7623 4.04323 20.6929 4.37886 20.4764 4.58417C20.0161 5.04495 19.5562 5.5062 19.094 5.96511C18.8325 6.23089 18.3703 6.25011 18.09 6.00308C17.8368 5.7987 17.7529 5.4237 17.8842 5.12792C17.9437 4.98261 18.0628 4.87526 18.172 4.76698C18.5864 4.35261 19.0007 3.93823 19.4156 3.52386C19.5201 3.41745 19.6546 3.3387 19.8023 3.31057Z" fill="#7CA9A9"/>
<path d="M8.86598 5.72819C10.1133 5.09866 11.5557 4.88256 12.9375 5.06584C14.2688 5.24163 15.5447 5.81163 16.5605 6.69053C17.6302 7.60413 18.4135 8.84866 18.7674 10.2104C19.1457 11.6419 19.0571 13.1935 18.5115 14.5702C18.0657 15.7074 17.3072 16.7152 16.3524 17.4746C15.7336 17.9551 15.2447 18.6277 15.0713 19.3993C14.9771 19.7841 15.0038 20.183 15 20.5754C14.9986 21.1393 15.0024 21.7032 14.9986 22.2671C14.9968 22.8212 14.7108 23.3635 14.2561 23.679C13.9965 23.866 13.6833 23.9673 13.3669 23.9996H10.6299C10.02 23.9508 9.45614 23.5566 9.21051 22.9951C8.93301 22.4162 9.01129 21.7604 9.00004 21.1397C8.98739 20.5472 9.04692 19.944 8.90442 19.3623C8.73989 18.6437 8.33161 17.9738 7.7302 17.5388C6.34785 16.4865 5.38551 14.9002 5.10145 13.1851C4.85066 11.6949 5.07285 10.119 5.7741 8.776C6.45051 7.46913 7.54926 6.38584 8.86598 5.72819ZM8.89832 7.44288C7.93457 8.09772 7.18364 9.06522 6.80113 10.1668C6.4416 11.221 6.40551 12.383 6.69988 13.4574C7.01488 14.6213 7.73207 15.669 8.69676 16.3913C9.67504 17.131 10.2919 18.2916 10.4513 19.4991C11.4779 19.4996 12.5049 19.5001 13.5319 19.4991C13.681 18.2668 14.3738 17.1376 15.3361 16.3683C15.8063 15.9966 16.2305 15.563 16.5643 15.0638C17.2997 13.9847 17.618 12.6348 17.4591 11.3396C17.3101 10.0487 16.6786 8.82241 15.7182 7.94772C14.8571 7.15178 13.7335 6.64975 12.5672 6.53209C11.289 6.39991 9.95723 6.70459 8.89832 7.44288ZM10.4996 21.0001C10.5066 21.3873 10.4818 21.7763 10.5146 22.1626C10.5361 22.3046 10.5957 22.516 10.7785 22.4991C11.5932 22.4996 12.4074 22.4996 13.2221 22.4991C13.3552 22.5127 13.4907 22.4082 13.4963 22.2713C13.5033 21.8476 13.4968 21.4238 13.4991 21.0001C12.4993 20.9996 11.4994 20.9991 10.4996 21.0001Z" fill="#7CA9A9"/>
<path d="M12.1017 7.51471C12.9956 7.45518 13.9003 7.7369 14.6386 8.23752C15.8034 9.0208 16.5375 10.4106 16.4958 11.8174C16.4714 12.175 16.1536 12.483 15.7959 12.4985C15.4073 12.5308 15.0286 12.2088 15.0047 11.8188C14.9944 11.6121 14.9902 11.4035 14.9433 11.201C14.7441 10.18 13.9167 9.31471 12.9019 9.08034C12.6534 9.01002 12.3947 9.00721 12.1392 8.9908C11.7844 8.94299 11.4914 8.61065 11.5003 8.25018C11.4928 7.90236 11.7605 7.57752 12.1017 7.51471Z" fill="#7CA9A9"/>
<path d="M0 11.9212C0.0403125 11.5532 0.372656 11.2429 0.746719 11.2514C1.40531 11.2499 2.06391 11.249 2.7225 11.2518C3.11672 11.2476 3.46453 11.6076 3.45609 11.9995C3.46641 12.3923 3.11812 12.7504 2.72484 12.7485C2.06578 12.7518 1.40625 12.7509 0.747187 12.7495C0.379219 12.7556 0.0520312 12.4542 0 12.0951V11.9212Z" fill="#7CA9A9"/>
<path d="M20.5435 12.0014C20.5322 11.6062 20.8819 11.2471 21.278 11.2518C21.9357 11.249 22.5943 11.2499 23.2524 11.2514C23.625 11.242 23.9522 11.5523 24 11.9156V12.0646C23.9677 12.4373 23.6316 12.7565 23.2538 12.7495C22.5952 12.7509 21.9361 12.7518 21.2771 12.749C20.8847 12.75 20.5332 12.3946 20.5435 12.0014Z" fill="#7CA9A9"/>
<path d="M5.31191 17.8305C5.63676 17.7738 5.98316 17.9589 6.11347 18.2622C6.23676 18.5346 6.18051 18.8791 5.96769 19.0919C5.50035 19.5616 5.03207 20.0304 4.56191 20.4972C4.29191 20.7668 3.81332 20.7729 3.5391 20.5061C3.23441 20.2427 3.21519 19.7257 3.50019 19.4407C3.95957 18.9775 4.42316 18.5172 4.88394 18.055C4.99785 17.9374 5.14832 17.8525 5.31191 17.8305Z" fill="#7CA9A9"/>
<path d="M18.3965 17.8419C18.6422 17.7847 18.9145 17.8536 19.094 18.0336C19.5637 18.5014 20.0334 18.9697 20.5003 19.4403C20.7853 19.7258 20.7665 20.2419 20.4628 20.5067C20.1876 20.7711 19.7095 20.7692 19.44 20.4983C18.9693 20.0314 18.5015 19.5622 18.0337 19.093C17.7768 18.8394 17.752 18.395 17.977 18.1138C18.0811 17.9792 18.2306 17.8794 18.3965 17.8419Z" fill="#7CA9A9"/>
</svg>
