<svg width="24" height="24" viewBox="0 0 24 24" fill="none" xmlns="http://www.w3.org/2000/svg">
<path d="M5.41559 3H12.0004C11.9997 3.70313 12.0004 4.40625 11.9997 5.10938C10.0545 5.10973 8.10962 5.10833 6.16477 5.11008C6.16337 8.64857 6.16372 12.1874 6.16477 15.7259C7.23071 15.728 8.29665 15.7252 9.36259 15.7273C9.3647 16.679 9.36189 17.6303 9.364 18.582C10.2426 17.7119 11.1106 16.8309 11.9905 15.9621C12.018 17.0102 11.9831 18.0599 12.0088 19.1079C11.3721 19.7344 10.7456 20.3711 10.1114 21H7.21876C7.21876 20.2969 7.21911 19.5938 7.21876 18.8907C5.81251 18.8903 4.40625 18.8907 3 18.8907V5.41559C3.80473 4.60981 4.60981 3.80438 5.41559 3Z" fill="#BF968B"/>
<path d="M12.0006 3H21.0002V15.4302C19.8461 16.5827 18.6922 17.7358 17.5401 18.8907C15.7693 18.891 13.9981 18.89 12.2273 18.8914C12.156 18.9648 12.0849 19.039 12.009 19.1079C11.9833 18.0599 12.0181 17.0102 11.9907 15.9621L12.0076 15.9463C12.0814 15.8767 12.1531 15.805 12.2228 15.7308C13.6448 15.7189 15.0676 15.7336 16.4897 15.7234C17.287 14.9219 18.0868 14.1228 18.888 13.3251C18.8944 10.5867 18.8898 7.84841 18.8902 5.11008C16.5934 5.10868 14.2966 5.10973 11.9999 5.10938C12.0006 4.40625 11.9999 3.70313 12.0006 3Z" fill="#BF968B"/>
<path d="M14.6721 9.32826C14.6722 9.0371 14.9079 8.80086 15.199 8.80079C15.4903 8.80071 15.7263 9.03696 15.7265 9.32826C15.727 10.0549 15.727 10.7814 15.7267 11.5079C15.7265 11.7991 15.4909 12.0354 15.1997 12.0354C14.9082 12.0355 14.6722 11.7991 14.6721 11.5077C14.6718 10.7812 14.6718 10.0546 14.6721 9.32826Z" fill="#BF968B"/>
<path d="M11.6721 9.32826C11.6722 9.0371 11.9079 8.80086 12.199 8.80079C12.4903 8.80071 12.7263 9.03696 12.7265 9.32826C12.727 10.0549 12.727 10.7814 12.7267 11.5079C12.7265 11.7991 12.4909 12.0354 12.1997 12.0354C11.9082 12.0355 11.6722 11.7991 11.6721 11.5077C11.6718 10.7812 11.6718 10.0546 11.6721 9.32826Z" fill="#BF968B"/>
</svg>
