<svg width="16" height="16" viewBox="0 0 16 16" fill="none" xmlns="http://www.w3.org/2000/svg">
<path d="M5.8916 0.687486C6.76525 0.758653 7.30708 1.51218 8.00192 1.93738C8.56895 1.55284 9.01298 0.958994 9.68141 0.735927C10.2088 0.544556 10.8677 0.759849 11.1467 1.25442C11.5199 1.79864 11.5517 2.48518 11.7653 3.0874C12.4194 3.25365 13.158 2.92234 13.8229 3.19026C14.3389 3.30568 14.6809 3.82298 14.7211 4.32832C14.7211 5.05254 14.2975 5.67031 14.1211 6.35327C14.6053 6.68877 15.1399 6.96446 15.5756 7.36335C15.9866 7.78497 16.1678 8.48407 15.8042 8.9924C15.4363 9.62691 14.6539 9.79556 14.1325 10.259C14.2381 10.8122 14.6107 11.2895 14.6665 11.8606C14.8303 12.4323 14.5591 13.1105 13.9993 13.3533C13.3008 13.6565 12.5232 13.434 11.7929 13.4836C11.5463 13.9818 11.5859 14.5954 11.3051 15.0918C11.0897 15.6527 10.4735 16.0337 9.87103 15.9147C9.60221 15.8136 9.3208 15.7346 9.08198 15.5696C8.68056 15.3465 8.42314 14.9225 8.00252 14.7305C7.38448 15.0666 6.98546 15.7699 6.26782 15.9374C5.54778 16.1874 4.83434 15.6521 4.63513 14.9757C4.44792 14.5272 4.39991 14.0279 4.2403 13.5781C3.60187 13.4029 2.88603 13.7247 2.23619 13.489C1.58995 13.3712 1.17353 12.641 1.31454 12.0197C1.40454 11.4192 1.73216 10.8942 1.88397 10.3123C1.42614 10.0085 0.955115 9.72439 0.51649 9.39248C0.130668 9.0229 -0.143548 8.43623 0.0808649 7.91235C0.371882 7.14208 1.20893 6.87416 1.82576 6.42384C1.91817 6.39214 1.87317 6.2827 1.84917 6.21991C1.63255 5.61709 1.29353 5.04178 1.28153 4.38454C1.31454 3.79906 1.74836 3.25365 2.34359 3.16515C2.88663 3.10355 3.44226 3.10534 3.98349 3.18907C4.09209 3.19325 4.1911 3.12448 4.27151 3.0581C4.46292 2.34464 4.53012 1.50201 5.13555 0.990092C5.32157 0.770613 5.62758 0.7443 5.8916 0.687486ZM10.2424 5.60573C9.86983 5.67271 9.64781 6.01179 9.4246 6.2827C8.67516 7.22939 7.92031 8.17249 7.15407 9.10543C6.67404 8.76754 6.37223 8.15455 5.78959 7.9584C5.51478 7.83401 5.24656 8.05109 5.00475 8.15575C4.75933 8.48048 4.72813 8.9631 5.01735 9.27407C5.57478 9.83503 6.14001 10.3882 6.69564 10.951C6.95966 11.1627 7.33168 11.1657 7.6275 11.0108C8.01272 10.6525 8.30074 10.2076 8.64216 9.80991C9.4348 8.82495 10.2202 7.83401 11.0159 6.85143C11.1359 6.65588 11.2517 6.4053 11.1239 6.17924C11.0675 5.78813 10.6151 5.54592 10.2424 5.60573Z" fill="#11131B"/>
</svg>
