<svg width="16" height="17" viewBox="0 0 16 17" fill="none" xmlns="http://www.w3.org/2000/svg">
<path d="M7.64895 3.51169C8.94881 3.42715 10.2745 3.80306 11.3475 4.58093C11.741 4.86645 12.103 5.19983 12.4246 5.57148C12.5304 5.68739 12.5081 5.87987 12.3906 5.97823C12.0782 6.29193 11.7749 6.61627 11.4574 6.92412C11.3141 7.048 11.187 6.84809 11.0928 6.75398C10.4988 6.08085 9.71495 5.58212 8.8526 5.40506C7.69706 5.14506 6.43669 5.42792 5.49636 6.18453C5.21684 6.40199 4.98188 6.67369 4.73427 6.92837C4.6811 6.99483 4.5783 7.02514 4.5145 6.95708C4.20865 6.66093 3.91597 6.34989 3.61417 6.04948C3.51441 5.95749 3.43188 5.81075 3.49213 5.66985C3.57822 5.51991 3.72152 5.41942 3.83596 5.29447C4.84061 4.23586 6.22706 3.58559 7.64895 3.51169Z" fill="#FCFCFD"/>
<path d="M2.0785 7.17138C2.20661 7.13682 2.32358 7.22508 2.40764 7.3176C3.24569 8.19277 4.09842 9.05252 4.93647 9.92717C4.98559 9.96439 5.02863 10.0452 5.09952 10.0213C5.20788 9.94152 5.29194 9.83252 5.38663 9.73735C6.18772 8.91375 6.98981 8.09122 7.78937 7.26655C7.90381 7.13257 8.11548 7.13363 8.22891 7.26762C9.0867 8.15608 9.95361 9.03498 10.8089 9.92663C10.859 9.96332 10.9005 10.0452 10.9729 10.0218C11.0798 9.94205 11.1643 9.83465 11.2585 9.73948C12.0515 8.92332 12.8475 8.11036 13.637 7.28995C13.7079 7.21711 13.8005 7.14533 13.9069 7.16766C14.0168 7.18308 14.0952 7.27453 14.1727 7.3495C14.4178 7.60578 14.671 7.85408 14.9161 8.11036C15.028 8.21776 15.0285 8.423 14.9145 8.52933C13.6608 9.81711 12.4075 11.1059 11.1542 12.3953C11.0464 12.5272 10.8357 12.5346 10.7223 12.407C9.84575 11.4994 8.96213 10.5992 8.08611 9.69216C8.04307 9.62835 7.96255 9.61985 7.91546 9.68418C7.04247 10.5753 6.17759 11.4755 5.30713 12.3698C5.23776 12.4437 5.14965 12.5112 5.04483 12.4985C4.87722 12.4915 4.78304 12.3267 4.66961 12.2209C3.48571 11.0023 2.30282 9.78254 1.12145 8.56177C1.00245 8.45809 0.944728 8.25392 1.07132 8.13109C1.30425 7.88013 1.55187 7.64406 1.78733 7.39522C1.87544 7.31015 1.95697 7.20222 2.0785 7.17138Z" fill="#FCFCFD"/>
</svg>
