<svg width="20" height="20" viewBox="0 0 20 20" fill="none" xmlns="http://www.w3.org/2000/svg">
<path fill-rule="evenodd" clip-rule="evenodd" d="M10 4.99967C7.15276 4.99967 4.81132 5.10031 3.17656 5.20154C2.45673 5.24612 1.88937 5.8013 1.83224 6.53424C1.74303 7.67857 1.66667 8.96701 1.66667 9.99967C1.66667 11.0323 1.74303 12.3208 1.83224 13.4651C1.88937 14.1981 2.45673 14.7533 3.17656 14.7978C4.81131 14.899 7.15276 14.9997 10 14.9997C12.8472 14.9997 15.1887 14.899 16.8234 14.7978C17.5433 14.7533 18.1106 14.1981 18.1677 13.4651C18.257 12.3208 18.3333 11.0323 18.3333 9.99967C18.3333 8.96701 18.257 7.67857 18.1677 6.53424C18.1106 5.8013 17.5433 5.24612 16.8234 5.20154C15.1887 5.10031 12.8472 4.99967 10 4.99967ZM3.07355 3.53806C1.5175 3.63442 0.291777 4.8504 0.170614 6.40471C0.0804294 7.56162 0 8.90126 0 9.99967C0 11.0981 0.0804294 12.4378 0.170614 13.5947C0.291777 15.1489 1.5175 16.3649 3.07355 16.4613C4.73785 16.5643 7.11394 16.6663 10 16.6663C12.8861 16.6663 15.2622 16.5643 16.9264 16.4613C18.4825 16.3649 19.7083 15.1489 19.8294 13.5947C19.9196 12.4378 20 11.0981 20 9.99967C20 8.90126 19.9196 7.56162 19.8294 6.40471C19.7083 4.8504 18.4825 3.63442 16.9264 3.53806C15.2622 3.435 12.8861 3.33301 10 3.33301C7.11394 3.33301 4.73785 3.435 3.07355 3.53806Z" fill="#BF968B"/>
<path d="M9.62908 7.53003L12.2935 9.3063C12.7882 9.63614 12.7882 10.3631 12.2935 10.6931L9.62908 12.4692C9.07533 12.8385 8.3335 12.4415 8.3335 11.7759V8.2234C8.3335 7.55783 9.07533 7.16084 9.62908 7.53003Z" fill="#BF968B"/>
</svg>
